<svg width="184" height="31" viewBox="0 0 184 31" fill="none" xmlns="http://www.w3.org/2000/svg">
<path d="M90.9999 11.3291C89.1016 11.9077 87.8886 13.392 86.3902 14.3995C86.1123 14.587 85.8381 14.7825 85.5509 14.9481C84.9444 15.2993 84.2872 15.3711 83.6976 14.994C82.8338 14.4394 82.0189 13.797 81.1909 13.1825C80.7703 12.8713 80.3797 12.5122 79.9497 12.2149C79.4108 11.8418 78.8156 11.7959 78.2711 12.163C77.3735 12.7715 76.5117 13.4339 75.6329 14.0723C75.2198 14.3716 74.818 14.6928 74.3843 14.9521C73.7008 15.3631 72.976 15.3611 72.3169 14.9262C71.5396 14.4135 70.8092 13.8249 69.9849 13.2184C71.6954 12.7935 72.7526 11.4807 74.0519 10.585C74.4275 10.3256 74.7917 10.0503 75.1673 9.79092C76.0103 9.20637 76.8816 9.23031 77.6946 9.7989C78.5847 10.4194 79.4202 11.1276 80.2783 11.7979C80.4379 11.9216 80.5975 12.0453 80.7534 12.175C81.4763 12.7755 82.2274 12.8035 82.9822 12.2628C83.7351 11.7241 84.4674 11.1555 85.2147 10.6069C85.6579 10.2797 86.0954 9.94254 86.5592 9.65326C87.1488 9.28418 87.821 9.17445 88.4143 9.52757C89.2874 10.0483 90.0986 10.6907 90.9999 11.3291Z" fill="white" fill-opacity="0.5"/>
<path d="M17.9904 11.8325C17.9904 11.4035 17.9904 11.0584 17.9904 10.6853C18.6025 10.6853 19.1865 10.6853 19.8043 10.6853C19.8043 15.0545 19.8043 19.4236 19.8043 23.8746C19.2034 23.4018 18.6326 22.9649 18.0806 22.502C18.0036 22.4382 17.9979 22.2506 17.9979 22.119C17.9923 21.0277 17.9942 19.9364 17.9942 18.7393C16.999 19.8386 15.8104 20.1558 14.5073 19.9683C13.1948 19.7808 12.1752 19.0506 11.4655 17.8615C10.2675 15.8565 10.6844 12.9736 12.3724 11.4893C13.7807 10.2564 16.2723 9.90722 17.9904 11.8325ZM18.0787 15.252C18.0806 13.5741 16.9108 12.2754 15.388 12.2654C13.8689 12.2554 12.6578 13.5582 12.6465 15.2101C12.6372 16.856 13.837 18.1847 15.3504 18.2067C16.8619 18.2286 18.0768 16.9139 18.0787 15.252Z" fill="white" fill-opacity="0.5"/>
<path d="M41.5311 11.7272C41.5311 10.7277 41.5442 9.82195 41.5236 8.91819C41.5161 8.60497 41.6006 8.39948 41.8465 8.21993C42.3404 7.85882 42.8173 7.46978 43.3524 7.04883C43.3524 11.3442 43.3524 15.5597 43.3524 19.8252C42.7966 19.8252 42.2596 19.8351 41.7245 19.8132C41.6569 19.8112 41.5499 19.6376 41.5405 19.5339C41.5142 19.2785 41.5311 19.0172 41.5311 18.7119C39.276 20.4775 37.0847 20.4037 35.5093 18.5643C33.9997 16.8007 33.9678 13.818 35.3873 12.0385C36.6247 10.4843 39.4224 9.64439 41.5311 11.7272ZM41.625 15.2704C41.64 13.5966 40.4683 12.2819 38.9493 12.2679C37.4208 12.2539 36.206 13.5467 36.1985 15.1966C36.1909 16.8645 37.3739 18.1932 38.8817 18.2092C40.4063 18.2231 41.6099 16.9363 41.625 15.2704Z" fill="white" fill-opacity="0.5"/>
<path d="M55.9795 15.9413C56.1973 17.0586 56.77 17.7967 57.7539 18.09C59.0964 18.491 60.2549 18.1818 61.1224 16.883C61.6181 17.1763 62.1063 17.4655 62.6415 17.7808C62.2866 18.4232 61.8322 18.908 61.2764 19.289C59.1058 20.7694 54.9036 20.1748 54.2295 16.1568C53.8577 13.9383 54.9298 11.7298 56.8094 10.8719C58.7697 9.97412 61.1037 10.5886 62.2847 12.3123C62.9795 13.3238 63.1578 14.477 63.1184 15.6939C63.1071 16.0191 62.8912 15.9413 62.7222 15.9413C60.6286 15.9453 58.535 15.9433 56.4414 15.9433C56.3005 15.9413 56.1597 15.9413 55.9795 15.9413ZM61.1468 14.2276C61.0623 13.0684 59.9958 12.2106 58.6627 12.2026C57.4628 12.1946 56.2386 13.1642 56.1316 14.2276C57.8027 14.2276 59.4738 14.2276 61.1468 14.2276Z" fill="white" fill-opacity="0.5"/>
<path d="M21.475 10.6777C22.1341 10.6777 22.7349 10.6777 23.3827 10.6777C23.3827 10.8493 23.3827 10.9989 23.3827 11.1486C23.3827 12.6608 23.3809 14.1711 23.3846 15.6833C23.3846 15.8928 23.3902 16.1043 23.4147 16.3118C23.5667 17.5467 24.2333 18.227 25.3149 18.2589C26.4772 18.2949 27.3484 17.5786 27.5549 16.4035C27.6038 16.1302 27.6263 15.8489 27.6263 15.5716C27.6338 14.1152 27.63 12.6608 27.63 11.2044C27.63 11.0388 27.63 10.8732 27.63 10.6817C28.2609 10.6817 28.8599 10.6817 29.4946 10.6817C29.5021 10.8034 29.5152 10.9231 29.5152 11.0448C29.5171 13.8299 29.5134 16.615 29.5246 19.4001C29.5265 19.7213 29.4552 19.853 29.1303 19.835C28.6478 19.8071 28.1633 19.8271 27.6526 19.8271C27.6526 19.462 27.6526 19.1447 27.6526 18.7497C27.5287 18.8595 27.4498 18.9173 27.3822 18.9871C26.2894 20.1443 24.9769 20.234 23.6062 19.7732C22.3031 19.3343 21.6834 18.251 21.5501 16.8704C21.46 15.9427 21.4825 14.999 21.4731 14.0633C21.4656 12.9481 21.475 11.8309 21.475 10.6777Z" fill="white" fill-opacity="0.5"/>
<path d="M53.0424 19.8059C52.434 19.8059 51.8463 19.8059 51.1966 19.8059C51.1966 19.6224 51.1966 19.4608 51.1966 19.2992C51.1966 17.8169 51.1966 16.3326 51.1966 14.8502C51.1966 14.6547 51.1966 14.4572 51.1797 14.2637C51.0708 13.0088 50.408 12.2866 49.2851 12.1908C48.2261 12.099 47.2647 12.8472 47.0263 13.9844C46.953 14.3355 46.9361 14.7046 46.9324 15.0657C46.923 16.4782 46.9286 17.8927 46.9286 19.3052C46.9286 19.4568 46.9286 19.6084 46.9286 19.794C46.2977 19.794 45.7006 19.794 45.0735 19.794C45.0735 16.7615 45.0735 13.735 45.0735 10.6826C45.6819 10.6826 46.2808 10.6826 46.9136 10.6826C46.9136 11.0117 46.9136 11.329 46.9136 11.716C47.0131 11.6362 47.0638 11.6043 47.1033 11.5624C48.3238 10.2357 50.5131 10.084 51.8651 11.2472C52.7401 12.0013 53.0518 13.0527 53.0743 14.1899C53.11 16.0074 53.0856 17.8269 53.0837 19.6463C53.0837 19.6862 53.0649 19.7241 53.0424 19.8059Z" fill="white" fill-opacity="0.5"/>
<path d="M66.8683 7C66.8683 8.27285 66.8683 9.43995 66.8683 10.645C67.4804 10.645 68.055 10.645 68.6596 10.645C68.6596 11.2475 68.6596 11.8081 68.6596 12.4146C68.0719 12.4146 67.4973 12.4146 66.9566 12.4146C66.9096 12.4804 66.8796 12.5004 66.8796 12.5223C66.8852 13.9348 66.857 15.3473 66.9134 16.7558C66.9472 17.6197 67.242 17.8591 68.055 17.9409C68.6934 18.0047 68.6934 18.0047 68.6934 18.6711C68.6934 18.7968 68.6953 18.9224 68.6934 19.0481C68.6765 19.9479 68.8399 19.8242 67.9292 19.8202C67.6156 19.8202 67.2983 19.7743 66.9885 19.7105C65.7811 19.4591 65.1052 18.6332 65.047 17.2286C64.985 15.7623 64.9925 14.2939 64.97 12.8256C64.9681 12.7158 64.97 12.6041 64.97 12.4465C64.493 12.4465 64.0386 12.4465 63.5542 12.4465C63.5542 11.836 63.5542 11.2734 63.5542 10.6649C64.0067 10.6649 64.4611 10.6649 64.97 10.6649C64.97 10.0265 64.9493 9.42998 64.9812 8.83545C64.9906 8.64592 65.0995 8.4105 65.2366 8.2908C65.7323 7.86186 66.2618 7.47283 66.8683 7Z" fill="white" fill-opacity="0.5"/>
<path d="M0 8.50391C0.632779 8.50391 1.23364 8.50391 1.87017 8.50391C1.87017 11.6282 1.87017 14.7285 1.87017 17.8926C3.43616 17.8926 4.96459 17.8926 6.5118 17.8926C6.5118 18.565 6.5118 19.1735 6.5118 19.8039C4.33557 19.8039 2.18187 19.8039 0 19.8039C0 16.0412 0 12.2865 0 8.50391Z" fill="white" fill-opacity="0.5"/>
<path d="M7.66895 10.6816C8.28483 10.6816 8.88381 10.6816 9.50907 10.6816C9.50907 13.7201 9.50907 16.7466 9.50907 19.801C8.89319 19.801 8.29609 19.801 7.66895 19.801C7.66895 16.7586 7.66895 13.7321 7.66895 10.6816Z" fill="white" fill-opacity="0.5"/>
<path d="M31.2205 10.6699C31.8345 10.6699 32.4241 10.6699 33.0474 10.6699C33.0474 13.7084 33.0474 16.7349 33.0474 19.7953C32.4447 19.7953 31.8476 19.7953 31.2205 19.7953C31.2205 16.7688 31.2205 13.7423 31.2205 10.6699Z" fill="white" fill-opacity="0.5"/>
<path d="M9.53312 7.48373C9.53312 8.11416 9.54063 8.68475 9.52373 9.25534C9.52185 9.33514 9.39793 9.47479 9.3247 9.47878C8.83838 9.49873 8.35018 9.49873 7.86386 9.48078C7.78688 9.47679 7.65356 9.34711 7.6498 9.2713C7.63103 8.75458 7.62915 8.23586 7.6498 7.71914C7.65356 7.63735 7.8019 7.49769 7.88827 7.4937C8.41402 7.47176 8.93977 7.48373 9.53312 7.48373Z" fill="white" fill-opacity="0.5"/>
<path d="M31.209 9.48851C31.209 8.80221 31.209 8.17776 31.209 7.48547C31.7723 7.48547 32.3337 7.47949 32.8933 7.49545C32.9571 7.49744 33.0698 7.62712 33.0716 7.70294C33.0867 8.21965 33.0904 8.73837 33.0698 9.25509C33.066 9.33689 32.9158 9.47654 32.8313 9.48053C32.3056 9.50048 31.7798 9.48851 31.209 9.48851Z" fill="white" fill-opacity="0.5"/>
<path d="M108.601 19.6484C108.138 20.1641 107.632 20.5521 107.086 20.8125C106.539 21.0677 105.948 21.1953 105.312 21.1953C104.14 21.1953 103.211 20.7995 102.523 20.0078C101.966 19.362 101.687 18.6406 101.687 17.8438C101.687 17.1354 101.914 16.4974 102.367 15.9297C102.825 15.3568 103.507 14.8542 104.414 14.4219C103.898 13.8281 103.554 13.3464 103.382 12.9766C103.211 12.6068 103.125 12.25 103.125 11.9062C103.125 11.2188 103.393 10.6224 103.929 10.1172C104.471 9.60677 105.151 9.35156 105.968 9.35156C106.75 9.35156 107.388 9.59115 107.882 10.0703C108.382 10.5495 108.632 11.125 108.632 11.7969C108.632 12.8854 107.911 13.8151 106.468 14.5859L108.523 17.2031C108.757 16.7448 108.94 16.2135 109.07 15.6094L110.531 15.9219C110.281 16.9219 109.942 17.7448 109.515 18.3906C110.041 19.0885 110.638 19.6745 111.304 20.1484L110.359 21.2656C109.791 20.901 109.205 20.362 108.601 19.6484ZM105.742 13.6797C106.351 13.3203 106.744 13.0052 106.922 12.7344C107.104 12.4635 107.195 12.1641 107.195 11.8359C107.195 11.4453 107.07 11.1276 106.82 10.8828C106.575 10.6328 106.268 10.5078 105.898 10.5078C105.518 10.5078 105.2 10.6302 104.945 10.875C104.695 11.1198 104.57 11.4193 104.57 11.7734C104.57 11.9505 104.614 12.138 104.703 12.3359C104.797 12.5286 104.935 12.7344 105.117 12.9531L105.742 13.6797ZM107.718 18.5391L105.14 15.3438C104.38 15.7969 103.867 16.2188 103.601 16.6094C103.336 16.9948 103.203 17.3776 103.203 17.7578C103.203 18.2214 103.388 18.7031 103.757 19.2031C104.127 19.7031 104.651 19.9531 105.328 19.9531C105.75 19.9531 106.185 19.8229 106.632 19.5625C107.086 19.2969 107.448 18.9557 107.718 18.5391Z" fill="white" fill-opacity="0.5"/>
<path d="M130.82 22.4478L131.8 22.2159C131.041 19.2793 130.303 16.3623 129.555 13.4117L131.595 12.9116C132.343 15.8538 133.093 18.7624 133.829 21.7129L134.798 21.4754L134.229 19.148C133.093 14.6625 131.956 10.1771 130.82 5.6917C130.76 5.4542 130.8 5.32567 131.033 5.22508C131.649 4.94568 132.257 4.66627 132.885 4.38686C132.738 7.6699 133.724 10.6903 134.46 13.747C134.818 15.2446 135.255 16.7283 135.73 18.1924C135.96 18.8346 136.271 19.4457 136.656 20.0113C136.885 20.3442 137.189 20.6198 137.545 20.816C137.729 20.9206 137.934 20.9856 138.145 21.0067C138.357 21.0278 138.57 21.0046 138.772 20.9386C138.974 20.8726 139.159 20.7653 139.315 20.6237C139.472 20.4822 139.596 20.3097 139.679 20.1175C139.858 19.7189 139.968 19.2941 140.006 18.8602C140.14 17.4631 139.833 16.1108 139.5 14.7277L138.554 14.9596C138.682 15.6777 138.838 16.3567 138.921 17.0608C138.98 17.711 138.993 18.3646 138.96 19.0166C138.96 19.3883 138.878 19.8241 138.438 19.9499C137.946 20.0952 137.616 19.7431 137.426 19.3911C137.012 18.6734 136.671 17.9172 136.409 17.1334C135.411 13.7079 134.479 10.2628 133.965 6.7283C133.89 6.0304 133.875 5.32755 133.92 4.62715C133.908 4.47399 133.951 4.32156 134.04 4.19576C134.13 4.06995 134.261 3.97853 134.411 3.93702C134.571 3.88662 134.744 3.89284 134.9 3.95459C135.055 4.01634 135.184 4.12973 135.264 4.2751C135.583 4.78276 135.858 5.31545 136.088 5.86772C136.326 6.4433 136.48 7.0552 136.682 7.69784L137.639 7.46314C137.298 6.14713 136.929 4.86744 136.091 3.66599C136.704 3.66599 137.253 3.63246 137.795 3.64923C137.869 3.64923 137.972 3.82246 138 3.92863C138.487 5.81184 138.967 7.69691 139.441 9.58384C140.268 12.8473 141.096 16.1071 141.924 19.3631C141.95 19.4693 141.987 19.5727 142.026 19.7096L142.995 19.4777L138.986 3.66599C139.779 3.84481 140.495 3.9929 141.2 4.1801C141.296 4.20525 141.364 4.42318 141.398 4.56568C142.274 7.98936 143.144 11.414 144.01 14.8395C144.334 16.1229 144.657 17.4017 144.979 18.6758C145.004 18.7708 145.035 18.8658 145.072 18.9971L146.047 18.7652C144.851 14.0488 143.66 9.35473 142.47 4.63274C146.448 6.07169 150.832 10.4025 150.852 16.8177C150.849 19.7821 149.832 22.6594 147.964 24.9863C146.096 27.3131 143.486 28.954 140.555 29.6448C137.623 30.3356 134.54 30.036 131.803 28.7943C129.065 27.5527 126.832 25.4412 125.464 22.7998C122.716 17.4911 124.142 11.6543 127.217 8.30974C127.819 10.6819 128.413 13.0261 129.01 15.3704C129.606 17.7146 130.203 20.07 130.82 22.4478Z" fill="white" fill-opacity="0.5"/>
<path d="M129.814 5.89062L131.351 11.951L129.311 12.4483C129.081 11.5458 128.862 10.6825 128.643 9.8191C128.461 9.09543 128.262 8.38294 128.097 7.64251C128.081 7.58321 128.078 7.52118 128.088 7.46051C128.097 7.39984 128.12 7.34189 128.154 7.29046C128.674 6.82943 129.214 6.39076 129.814 5.89062Z" fill="white" fill-opacity="0.5"/>
<path d="M154.551 5.58789H155.404V7.40963H157.021V5.58789H157.873V10.4216H157.021V8.30653H155.398V10.4356H154.546L154.551 5.58789Z" fill="white" fill-opacity="0.5"/>
<path d="M162.075 7.07828H162.746L162.789 7.31857C163.061 7.18274 163.347 7.07415 163.641 6.99446C163.792 6.96585 163.948 6.99017 164.083 7.06318C164.217 7.13619 164.321 7.25326 164.377 7.39401C164.659 7.22228 164.962 7.08527 165.278 6.98607C165.388 6.96572 165.502 6.96855 165.611 6.99439C165.721 7.02024 165.823 7.0685 165.912 7.13603C166.001 7.20356 166.075 7.28883 166.128 7.38625C166.181 7.48367 166.213 7.59105 166.221 7.70136C166.272 8.59826 166.221 9.50074 166.221 10.42H165.485V9.50074C165.485 9.10957 165.485 8.7184 165.485 8.33002C165.485 7.94165 165.343 7.75444 165.073 7.73768C164.803 7.72092 164.567 7.93047 164.553 8.31605C164.536 8.9056 164.553 9.49795 164.553 10.0903C164.553 10.1909 164.553 10.2887 164.553 10.4172H163.777V9.60412C163.777 9.20178 163.777 8.79943 163.777 8.39708C163.777 7.93606 163.63 7.74606 163.317 7.75444C163.005 7.76283 162.851 7.95841 162.848 8.39708C162.848 9.06487 162.848 9.73265 162.848 10.4256H162.075V7.07828Z" fill="white" fill-opacity="0.5"/>
<path d="M161.695 13.15H162.379L162.428 13.3623C162.712 13.2589 163.013 13.0661 163.303 13.0829C163.593 13.0997 163.837 13.3176 164.101 13.4461L164.067 13.5355C164.163 13.4298 164.267 13.3309 164.377 13.2394C164.494 13.1503 164.632 13.0905 164.778 13.0649C164.924 13.0393 165.075 13.0487 165.216 13.0922C165.358 13.1358 165.487 13.2123 165.592 13.3153C165.697 13.4182 165.775 13.5446 165.82 13.6836C165.878 13.8986 165.905 14.1206 165.9 14.343C165.9 15.0555 165.9 15.768 165.9 16.5056H165.09V15.4439C165.09 15.0416 165.09 14.6392 165.09 14.2369C165.094 14.1861 165.087 14.1352 165.07 14.0871C165.053 14.039 165.027 13.9947 164.992 13.9567C164.958 13.9187 164.916 13.8879 164.87 13.8659C164.823 13.844 164.772 13.8314 164.721 13.8289C164.613 13.8089 164.501 13.831 164.409 13.8904C164.318 13.9499 164.253 14.042 164.229 14.1475C164.184 14.3303 164.162 14.518 164.164 14.7063C164.164 15.2958 164.164 15.8854 164.164 16.5001H163.391C163.391 15.9776 163.391 15.4551 163.391 14.9354C163.391 14.7007 163.391 14.466 163.377 14.2341C163.379 14.1803 163.369 14.1268 163.349 14.0767C163.329 14.0267 163.299 13.9813 163.26 13.9432C163.222 13.9052 163.176 13.8754 163.125 13.8558C163.074 13.8361 163.019 13.827 162.965 13.8289C162.908 13.8198 162.85 13.8226 162.794 13.8371C162.738 13.8516 162.686 13.8775 162.642 13.9131C162.597 13.9487 162.56 13.9932 162.534 14.0437C162.508 14.0942 162.493 14.1496 162.49 14.2061C162.459 14.5833 162.462 14.9633 162.459 15.3433C162.456 15.7233 162.459 16.0977 162.459 16.5001H161.709L161.695 13.15Z" fill="white" fill-opacity="0.5"/>
<path d="M157.649 13.2721C157.459 13.2885 157.269 13.2885 157.08 13.2721C157.026 13.2605 156.976 13.2371 156.933 13.2038C156.89 13.1704 156.854 13.1279 156.83 13.0793C156.702 12.7105 156.503 12.4395 156.069 12.4283C155.713 12.4283 155.429 12.6463 155.284 13.1017C155.063 13.7422 155.063 14.4366 155.284 15.0771C155.394 15.3408 155.587 15.5624 155.836 15.7086C155.921 15.7509 156.015 15.7733 156.11 15.7739C156.205 15.7746 156.299 15.7535 156.385 15.7124C156.471 15.6712 156.545 15.6111 156.603 15.5368C156.661 15.4624 156.701 15.3759 156.719 15.2839C156.833 14.8648 157.072 14.8005 157.433 14.8536C157.487 14.8536 157.543 14.8536 157.597 14.8536C157.694 15.4124 157.222 16.2506 156.671 16.53C156.387 16.6565 156.069 16.6919 155.763 16.6312C155.457 16.5705 155.178 16.4169 154.966 16.1919C154.827 16.045 154.713 15.8759 154.631 15.6918C154.418 15.1905 154.309 14.652 154.312 14.1087C154.315 13.5653 154.429 13.028 154.648 12.5289C154.746 12.245 154.933 11.9989 155.182 11.8258C155.431 11.6526 155.73 11.5613 156.035 11.565C156.961 11.5426 157.663 12.2635 157.649 13.2721Z" fill="white" fill-opacity="0.5"/>
<path d="M167.352 16.1845V17.8385H166.596V13.1333H167.326L167.355 13.4574C167.539 13.3116 167.74 13.1878 167.954 13.0886C168.209 13.0151 168.483 13.0393 168.72 13.1565C168.958 13.2738 169.141 13.4752 169.233 13.7201C169.389 14.0735 169.467 14.4552 169.463 14.8404C169.458 15.2256 169.371 15.6055 169.207 15.9553C168.946 16.5589 168.074 16.9696 167.352 16.1845ZM168.668 14.8601C168.63 14.6177 168.562 14.3811 168.463 14.156C168.411 14.0756 168.343 14.0071 168.262 13.9551C168.181 13.903 168.09 13.8686 167.994 13.8542C167.897 13.8614 167.803 13.8904 167.718 13.9388C167.634 13.9872 167.562 14.0538 167.508 14.1336C167.386 14.3496 167.32 14.5915 167.315 14.8384C167.31 15.0853 167.367 15.3297 167.48 15.5502C167.533 15.6365 167.605 15.7096 167.691 15.7639C167.777 15.8182 167.875 15.8522 167.977 15.8631C168.078 15.8469 168.174 15.8095 168.259 15.7536C168.344 15.6977 168.415 15.6245 168.469 15.539C168.569 15.3238 168.636 15.0949 168.668 14.8601Z" fill="white" fill-opacity="0.5"/>
<path d="M178.298 15.0887H175.945C175.928 15.2513 175.968 15.4146 176.058 15.5521C176.148 15.6895 176.282 15.7931 176.439 15.8459C176.589 15.8909 176.748 15.8968 176.901 15.863C177.054 15.8292 177.196 15.7569 177.312 15.6531C177.536 15.4967 177.88 15.519 178.272 15.4464C178.225 15.6938 178.113 15.9247 177.946 16.1156C177.78 16.3065 177.565 16.4506 177.323 16.5333C176.431 16.8434 175.155 16.4494 175.087 15.1362C175.07 14.8695 175.081 14.6018 175.118 14.3371C175.185 13.9751 175.381 13.6482 175.67 13.4143C175.958 13.1803 176.322 13.0544 176.696 13.0587C177.071 13.0631 177.431 13.1974 177.714 13.438C177.997 13.6786 178.185 14.01 178.244 14.3734C178.286 14.5998 178.272 14.8093 178.298 15.0887ZM175.976 14.4433H177.366C177.369 14.3552 177.354 14.2674 177.322 14.1853C177.29 14.1031 177.241 14.0283 177.178 13.9654C177.115 13.9026 177.04 13.8531 176.957 13.82C176.874 13.7868 176.785 13.7707 176.695 13.7727C176.3 13.7671 176.061 13.9711 175.976 14.4489V14.4433Z" fill="white" fill-opacity="0.5"/>
<path d="M174.425 27.2147C174.402 27.3758 174.436 27.5397 174.52 27.6794C174.605 27.8191 174.736 27.9262 174.891 27.9831C175.039 28.0338 175.199 28.0448 175.353 28.0148C175.507 27.9849 175.651 27.9151 175.769 27.8126C175.999 27.6562 176.337 27.6646 176.635 27.5975L176.703 27.6953C176.666 27.8252 176.616 27.9514 176.556 28.0725C176.383 28.3386 176.132 28.5466 175.836 28.6689C175.54 28.7912 175.213 28.8219 174.899 28.757C174.579 28.7258 174.279 28.5912 174.045 28.3744C173.811 28.1575 173.657 27.8706 173.606 27.5584C173.549 27.2183 173.544 26.8717 173.592 26.5302C173.608 26.3341 173.664 26.1432 173.755 25.9686C173.847 25.7939 173.974 25.639 174.127 25.5128C174.28 25.3867 174.458 25.2918 174.649 25.2338C174.84 25.1758 175.041 25.1558 175.24 25.175C175.644 25.1795 176.03 25.3414 176.313 25.6253C176.596 25.9093 176.753 26.292 176.749 26.6894C176.749 26.8515 176.749 27.0163 176.749 27.2147H174.425ZM174.456 26.6056H175.834C175.841 26.5167 175.828 26.4274 175.798 26.3435C175.768 26.2595 175.72 26.1827 175.657 26.118C175.595 26.0533 175.52 26.0021 175.436 25.9677C175.352 25.9333 175.262 25.9165 175.172 25.9183C174.765 25.9015 174.501 26.1474 174.456 26.6056Z" fill="white" fill-opacity="0.5"/>
<path d="M162.323 21.1368C162.299 21.2938 162.328 21.4542 162.407 21.5928C162.486 21.7314 162.609 21.8403 162.758 21.9024C162.901 21.9764 163.065 22.0009 163.223 21.972C163.382 21.9431 163.526 21.8625 163.633 21.7432C163.917 21.4386 164.249 21.6677 164.633 21.5615C164.583 21.714 164.521 21.8625 164.448 22.0058C164.264 22.2847 163.994 22.4989 163.678 22.6174C163.362 22.7359 163.016 22.7527 162.689 22.6652C162.378 22.6127 162.093 22.4627 161.875 22.2377C161.657 22.0126 161.52 21.7245 161.482 21.4163C161.444 21.1063 161.444 20.793 161.482 20.483C161.509 20.0981 161.688 19.7389 161.981 19.4824C162.275 19.226 162.658 19.0927 163.05 19.1111C163.245 19.0975 163.44 19.1216 163.625 19.1822C163.809 19.2428 163.98 19.3387 164.127 19.4643C164.274 19.5899 164.395 19.7429 164.481 19.9143C164.568 20.0858 164.62 20.2724 164.633 20.4635C164.661 20.6702 164.661 20.8826 164.679 21.1368H162.323ZM162.36 20.5333H163.732C163.738 20.4411 163.725 20.3486 163.693 20.2615C163.662 20.1745 163.612 20.0948 163.548 20.0274C163.483 19.9599 163.406 19.9062 163.319 19.8694C163.233 19.8327 163.14 19.8137 163.046 19.8137C162.952 19.8137 162.859 19.8327 162.773 19.8694C162.686 19.9062 162.609 19.9599 162.544 20.0274C162.48 20.0948 162.431 20.1745 162.399 20.2615C162.367 20.3486 162.354 20.4411 162.36 20.5333Z" fill="white" fill-opacity="0.5"/>
<path d="M170.157 22.5571C169.589 22.6884 169.322 22.6242 169.205 22.3783C168.867 22.5153 168.516 22.6182 168.157 22.6856C167.929 22.711 167.7 22.6473 167.519 22.5083C167.338 22.3693 167.22 22.1661 167.191 21.9424C167.071 21.3836 167.296 20.8807 167.787 20.699C168.036 20.6235 168.289 20.5666 168.546 20.5286C168.703 20.5071 168.858 20.4725 169.009 20.4252C169.057 20.4066 169.099 20.3763 169.131 20.3371C169.163 20.2979 169.185 20.2512 169.193 20.2015C169.202 20.1518 169.197 20.1008 169.18 20.0534C169.163 20.0059 169.133 19.9637 169.094 19.9307C168.965 19.8527 168.815 19.8142 168.663 19.8202C168.511 19.8261 168.365 19.8763 168.242 19.9642C167.898 20.3274 167.83 20.3498 167.316 20.2436C167.289 20.0156 167.346 19.7856 167.476 19.595C167.606 19.4045 167.801 19.2659 168.026 19.2042C168.31 19.1307 168.605 19.1015 168.898 19.1176C169.751 19.1595 170.063 19.4948 170.066 20.3442C170.066 20.8555 170.066 21.3696 170.066 21.8837C170.082 22.1098 170.112 22.3347 170.157 22.5571ZM169.143 21.0036C168.859 21.0707 168.574 21.1237 168.322 21.2076C168.264 21.2231 168.21 21.2504 168.163 21.2878C168.117 21.3252 168.079 21.3717 168.052 21.4245C168.026 21.4772 168.01 21.5349 168.008 21.5939C168.005 21.6528 168.015 21.7116 168.037 21.7664C168.111 22.0458 168.322 22.0821 168.58 22.0458C169.063 21.9508 169.256 21.5931 169.143 21.0036Z" fill="white" fill-opacity="0.5"/>
<path d="M166.929 8.10234C166.929 7.54353 167.188 7.13559 167.702 7.05456C168.146 6.98976 168.598 7.00206 169.038 7.09089C169.489 7.1775 169.66 7.4625 169.671 7.92911C169.671 8.4516 169.671 8.97689 169.671 9.50217C169.671 9.80114 169.739 10.1001 169.776 10.4075C169.231 10.5388 168.952 10.4717 168.83 10.2119C168.517 10.354 168.191 10.4644 167.855 10.5416C167.737 10.5615 167.615 10.558 167.498 10.5314C167.38 10.5047 167.27 10.4553 167.172 10.3862C167.074 10.317 166.991 10.2295 166.928 10.1285C166.865 10.0276 166.823 9.91539 166.804 9.79835C166.682 9.206 166.932 8.68072 167.469 8.52984C167.813 8.42366 168.179 8.39851 168.532 8.3119C168.592 8.30695 168.649 8.28472 168.696 8.24797C168.744 8.21122 168.779 8.16158 168.798 8.10525C168.817 8.04892 168.818 7.98839 168.802 7.93123C168.786 7.87406 168.753 7.82279 168.708 7.78382C168.579 7.70322 168.428 7.66348 168.276 7.66998C168.123 7.67648 167.977 7.7289 167.855 7.82014C167.532 8.18058 167.532 8.18058 166.929 8.10234ZM168.776 8.85674C168.515 8.91821 168.25 8.97409 167.992 9.04674C167.93 9.05937 167.871 9.08525 167.821 9.12255C167.77 9.15984 167.728 9.20764 167.699 9.26256C167.669 9.31747 167.652 9.37817 167.648 9.44034C167.645 9.50251 167.656 9.56463 167.679 9.62232C167.756 9.90173 167.995 9.93805 168.248 9.88217C168.714 9.77879 168.895 9.42953 168.776 8.86512V8.85674Z" fill="white" fill-opacity="0.5"/>
<path d="M161.189 14.7302C161.143 15.0333 161.079 15.3337 160.999 15.6299C160.906 15.9166 160.724 16.1671 160.478 16.3458C160.232 16.5245 159.934 16.6222 159.628 16.625C159.323 16.6278 159.024 16.5355 158.774 16.3613C158.525 16.1871 158.338 15.94 158.24 15.6551C158.114 15.3378 158.061 14.9969 158.085 14.6572C158.11 14.3174 158.211 13.9873 158.382 13.6908C158.507 13.4811 158.686 13.3072 158.901 13.1863C159.116 13.0655 159.359 13.002 159.606 13.002C159.854 13.002 160.097 13.0655 160.312 13.1863C160.527 13.3072 160.706 13.4811 160.831 13.6908C160.982 14.0259 161.102 14.3738 161.189 14.7302ZM160.371 14.8085C160.339 14.5654 160.269 14.3288 160.163 14.1071C160.102 14.0206 160.023 13.9477 159.93 13.8933C159.838 13.8389 159.736 13.8042 159.629 13.7914C159.522 13.8007 159.417 13.8337 159.324 13.8878C159.231 13.942 159.152 14.016 159.092 14.1043C158.966 14.3245 158.9 14.5727 158.9 14.8252C158.9 15.0777 158.966 15.3259 159.092 15.5461C159.15 15.6354 159.228 15.7104 159.32 15.7651C159.412 15.8199 159.516 15.853 159.623 15.8618C159.735 15.8448 159.841 15.8052 159.936 15.7455C160.031 15.6859 160.112 15.6075 160.175 15.5154C160.277 15.2913 160.344 15.0527 160.371 14.8085Z" fill="white" fill-opacity="0.5"/>
<path d="M180.843 20.7902C180.795 21.099 180.73 21.405 180.647 21.7067C180.55 21.991 180.365 22.2383 180.117 22.4135C179.87 22.5887 179.572 22.683 179.267 22.683C178.962 22.683 178.665 22.5887 178.418 22.4135C178.17 22.2383 177.985 21.991 177.888 21.7067C177.761 21.3819 177.711 21.033 177.742 20.6864C177.772 20.3398 177.882 20.0046 178.064 19.7061C178.193 19.5082 178.37 19.3453 178.579 19.2325C178.788 19.1197 179.023 19.0605 179.262 19.0605C179.501 19.0605 179.735 19.1197 179.945 19.2325C180.154 19.3453 180.331 19.5082 180.459 19.7061C180.623 20.0543 180.752 20.4174 180.843 20.7902ZM179.991 20.8908C179.946 20.657 179.889 20.4257 179.82 20.1979C179.778 20.0853 179.699 19.9892 179.597 19.9238C179.495 19.8584 179.374 19.8271 179.252 19.8346C179.132 19.8261 179.012 19.8553 178.91 19.9181C178.808 19.9809 178.728 20.074 178.684 20.1839C178.574 20.4057 178.519 20.6495 178.523 20.8959C178.526 21.1423 178.588 21.3845 178.703 21.6033C178.833 21.775 179.024 21.8927 179.238 21.933C179.358 21.9588 179.485 21.9381 179.59 21.8752C179.696 21.8123 179.773 21.712 179.806 21.5949C179.887 21.3645 179.953 21.1293 180.005 20.8908H179.991Z" fill="white" fill-opacity="0.5"/>
<path d="M183.989 22.5815H183.213V21.9836C183.213 21.4248 183.213 20.8911 183.193 20.3435C183.2 20.2845 183.194 20.2248 183.177 20.168C183.16 20.1112 183.131 20.0585 183.092 20.0131C183.053 19.9676 183.005 19.9304 182.951 19.9036C182.898 19.8768 182.839 19.8611 182.779 19.8573C182.647 19.8345 182.512 19.8637 182.402 19.9385C182.293 20.0133 182.217 20.1278 182.193 20.2568C182.146 20.4632 182.121 20.6739 182.119 20.8855C182.119 21.4443 182.119 22.0031 182.119 22.562H181.355V19.2091H182.062L182.102 19.441C182.371 19.2975 182.658 19.1886 182.955 19.1169C183.079 19.0931 183.208 19.0971 183.331 19.1284C183.454 19.1598 183.568 19.2177 183.665 19.2981C183.762 19.3784 183.84 19.4791 183.893 19.5928C183.945 19.7064 183.971 19.8302 183.969 19.9551C184.02 20.8212 183.989 21.6818 183.989 22.5815Z" fill="white" fill-opacity="0.5"/>
<path d="M156.376 22.5797V19.2268H157.101L157.152 19.5621C157.275 19.4389 157.41 19.3275 157.555 19.2296C158.123 18.9083 158.947 19.2519 158.996 19.8974C159.061 20.7831 159.013 21.6744 159.013 22.5881H158.248C158.248 22.0879 158.248 21.599 158.248 21.1128C158.248 20.8334 158.248 20.5763 158.22 20.3109C158.224 20.2028 158.186 20.0972 158.114 20.0156C158.042 19.9341 157.94 19.8828 157.831 19.8722C157.712 19.8476 157.589 19.8668 157.484 19.9261C157.379 19.9854 157.3 20.0806 157.263 20.1935C157.197 20.3941 157.163 20.6032 157.16 20.8138C157.16 21.2944 157.16 21.775 157.16 22.2528C157.16 22.3617 157.16 22.4707 157.14 22.5936L156.376 22.5797Z" fill="white" fill-opacity="0.5"/>
<path d="M170.355 28.3709C170.152 28.5064 169.932 28.6171 169.702 28.7006C169.045 28.8459 168.542 28.519 168.503 27.8624C168.449 27.0242 168.488 26.1692 168.488 25.2891H169.256V26.6861C169.256 26.8985 169.256 27.1108 169.256 27.3232C169.256 27.8009 169.398 27.9965 169.727 28.0021C170.057 28.0077 170.316 27.773 170.33 27.3315C170.35 26.6637 170.33 25.9932 170.33 25.2974H171.108V28.6503H170.404L170.355 28.3709Z" fill="white" fill-opacity="0.5"/>
<path d="M169.978 13.1328H170.785C170.785 13.5519 170.785 13.9515 170.785 14.351C170.785 14.6975 170.785 15.044 170.805 15.3904C170.794 15.4973 170.825 15.6042 170.893 15.6883C170.961 15.7724 171.06 15.827 171.169 15.8403C171.287 15.8683 171.411 15.8528 171.519 15.7967C171.626 15.7405 171.709 15.6477 171.751 15.5357C171.815 15.3454 171.847 15.1465 171.848 14.9462C171.848 14.3566 171.848 13.7643 171.848 13.1468H172.618V16.4857H171.907L171.882 16.2482C171.599 16.3913 171.299 16.4992 170.99 16.5695C170.879 16.5898 170.765 16.5871 170.655 16.5615C170.546 16.5359 170.443 16.488 170.353 16.4208C170.263 16.3537 170.189 16.2689 170.135 16.1718C170.08 16.0747 170.047 15.9675 170.038 15.857C169.983 15.5386 169.958 15.2159 169.964 14.8931C169.972 14.3175 169.978 13.7391 169.978 13.1328Z" fill="white" fill-opacity="0.5"/>
<path d="M159.021 28.6453H158.248C158.248 28.067 158.248 27.4998 158.248 26.9353C158.267 26.736 158.253 26.5349 158.205 26.3402C158.135 26.1649 158 26.0221 157.828 25.9407C157.773 25.9213 157.715 25.9132 157.657 25.9169C157.599 25.9207 157.543 25.9362 157.491 25.9624C157.44 25.9887 157.394 26.0251 157.358 26.0694C157.321 26.1138 157.294 26.1651 157.279 26.2201C157.201 26.4394 157.16 26.6696 157.157 26.9018C157.14 27.4606 157.157 28.039 157.157 28.6342H156.393V25.2813H157.1L157.174 25.6305C157.279 25.476 157.425 25.3526 157.597 25.2738C157.768 25.195 157.958 25.1638 158.146 25.1835C158.374 25.1841 158.593 25.2719 158.756 25.4284C158.919 25.5848 159.014 25.7976 159.021 26.0217C159.046 26.8739 159.021 27.7428 159.021 28.6453Z" fill="white" fill-opacity="0.5"/>
<path d="M160.524 7.06139H161.286V10.4143H160.598L160.519 10.0902C160.398 10.2441 160.238 10.3638 160.055 10.437C159.871 10.5101 159.672 10.5341 159.476 10.5065C159.284 10.5005 159.102 10.4259 158.962 10.2968C158.822 10.1677 158.735 9.99287 158.717 9.80517C158.672 8.8971 158.703 7.98343 158.703 7.05859H159.436V8.22372C159.436 8.58136 159.436 8.93901 159.453 9.29665C159.446 9.35386 159.45 9.41197 159.466 9.46752C159.482 9.52307 159.509 9.57494 159.545 9.62003C159.582 9.66513 159.627 9.70253 159.679 9.73001C159.73 9.7575 159.787 9.7745 159.845 9.78002C159.97 9.80544 160.101 9.78362 160.21 9.71891C160.32 9.6542 160.4 9.55133 160.436 9.43076C160.491 9.24934 160.519 9.06114 160.519 8.87195C160.53 8.27681 160.524 7.68726 160.524 7.06139Z" fill="white" fill-opacity="0.5"/>
<path d="M159.592 27.5692C159.767 27.5536 159.943 27.5536 160.118 27.5692C160.17 27.5812 160.22 27.6035 160.263 27.6347C160.307 27.6659 160.343 27.7054 160.371 27.7508C160.474 27.9092 160.637 28.0212 160.823 28.0625C161.01 28.1038 161.206 28.0711 161.368 27.9715C161.405 27.9379 161.432 27.8953 161.446 27.8482C161.461 27.801 161.462 27.7509 161.451 27.703C161.439 27.655 161.415 27.6109 161.38 27.5752C161.346 27.5394 161.303 27.5132 161.255 27.4993C160.99 27.3987 160.715 27.3317 160.445 27.2451C159.828 27.0411 159.626 26.7673 159.675 26.1945C159.689 25.9414 159.794 25.7014 159.971 25.5168C160.147 25.3323 160.385 25.2151 160.641 25.1858C161.51 25.0489 162.113 25.4652 162.15 26.3035C161.848 26.2448 161.499 26.4962 161.297 26.024C161.212 25.8285 160.729 25.8033 160.553 25.9402C160.512 25.9663 160.48 26.0031 160.46 26.0463C160.44 26.0895 160.433 26.1375 160.44 26.1845C160.446 26.2316 160.466 26.2759 160.497 26.3123C160.528 26.3487 160.569 26.3756 160.615 26.3901C160.86 26.4781 161.11 26.5537 161.362 26.6164C162.022 26.8092 162.292 27.1752 162.215 27.7871C162.191 28.0519 162.068 28.2985 161.868 28.478C161.669 28.6575 161.408 28.757 161.138 28.7567C160.189 28.86 159.624 28.4437 159.592 27.5692Z" fill="white" fill-opacity="0.5"/>
<path d="M171.168 10.4454H170.412V7.07855H171.128L171.168 7.35796C171.369 7.20347 171.591 7.0783 171.827 6.98634C171.974 6.94453 172.129 6.93793 172.279 6.96709C172.428 6.99625 172.569 7.06033 172.688 7.15394C172.808 7.24755 172.903 7.36797 172.965 7.50508C173.027 7.64219 173.055 7.79199 173.046 7.94192C173.075 8.75499 173.046 9.56807 173.046 10.4119H172.239C172.239 9.68542 172.239 8.97293 172.239 8.26044C172.239 8.01456 172.174 7.78266 171.884 7.71839C171.767 7.68099 171.64 7.68911 171.529 7.7411C171.418 7.79308 171.332 7.88496 171.288 7.9978C171.218 8.16159 171.176 8.33512 171.162 8.51191C171.143 8.73264 171.162 8.95617 171.162 9.17969L171.168 10.4454Z" fill="white" fill-opacity="0.5"/>
<path d="M173.575 20.3966C173.355 20.4108 173.135 20.4108 172.915 20.3966C172.862 20.3862 172.811 20.3647 172.766 20.3333C172.721 20.302 172.684 20.2616 172.657 20.215C172.62 20.1088 172.55 20.0169 172.456 19.9525C172.363 19.8882 172.251 19.8549 172.137 19.8573C172.016 19.8438 171.894 19.8757 171.795 19.9467C171.697 20.0176 171.629 20.1223 171.605 20.2401C171.548 20.6766 171.541 21.118 171.583 21.5561C171.602 21.6806 171.669 21.7928 171.771 21.869C171.873 21.9452 172.001 21.9793 172.128 21.9641C172.248 21.9692 172.367 21.9329 172.463 21.8615C172.559 21.7901 172.626 21.688 172.654 21.5729C172.679 21.5256 172.715 21.4844 172.758 21.4521C172.801 21.4197 172.851 21.3971 172.904 21.3857C173.104 21.3703 173.306 21.3703 173.506 21.3857C173.519 21.6558 173.442 21.9226 173.289 22.1469C173.136 22.3712 172.913 22.5412 172.654 22.6318C171.711 22.9615 170.858 22.5145 170.665 21.5561C170.521 20.9961 170.576 20.4046 170.821 19.8797C171.125 19.2706 171.75 19.0079 172.526 19.1448C173.174 19.2538 173.492 19.6198 173.575 20.3966Z" fill="white" fill-opacity="0.5"/>
<path d="M155.56 23.8086V28.6312H154.557V23.8086H155.56Z" fill="white" fill-opacity="0.5"/>
<path d="M155.54 22.5787H154.549V17.7422H155.54V22.5787Z" fill="white" fill-opacity="0.5"/>
<path d="M159.496 19.2407L159.888 19.1876V18.3047H160.689V19.1848L161.166 19.2463V19.8386L160.692 19.8861V21.0317C160.692 21.177 160.692 21.3111 160.692 21.4648C160.655 21.7973 160.726 22.0236 161.161 21.951V22.5964C160.885 22.6174 160.609 22.6174 160.334 22.5964C160.197 22.5744 160.074 22.5002 159.992 22.3899C159.91 22.2795 159.876 22.1419 159.896 22.0068C159.896 21.4285 159.896 20.8473 159.896 20.2689V19.8861L159.498 19.8414L159.496 19.2407Z" fill="white" fill-opacity="0.5"/>
<path d="M173.262 25.3214V25.8997L172.794 25.9612C172.794 26.5759 172.774 27.1878 172.811 27.7941C172.811 27.9087 173.047 28.0065 173.174 28.1126L173.231 28.0456C173.231 28.0651 173.268 28.0875 173.262 28.1015C173.191 28.3026 173.495 28.6603 173.032 28.6994C172.359 28.7664 172.015 28.5737 171.995 28.0931C171.97 27.5007 171.995 26.9112 171.995 26.3188V25.9584L171.597 25.9053V25.3102L171.981 25.2683V24.377H172.791V25.2571L173.262 25.3214Z" fill="white" fill-opacity="0.5"/>
<path d="M164.181 28.173V28.6983C163.959 28.6983 163.746 28.7122 163.536 28.6983C163.447 28.7039 163.358 28.6898 163.275 28.6569C163.192 28.6241 163.117 28.5733 163.057 28.5084C162.997 28.4435 162.952 28.3661 162.926 28.2819C162.901 28.1977 162.894 28.109 162.908 28.0221C162.908 27.3431 162.908 26.6642 162.908 25.9713L162.505 25.9042V25.3202L162.9 25.2616V24.373H163.707V25.2644L164.167 25.3063V25.8986L163.715 25.9601C163.715 26.5832 163.695 27.1951 163.732 27.8042C163.738 27.9131 163.977 28.0109 164.181 28.173Z" fill="white" fill-opacity="0.5"/>
<path d="M174.32 13.815C174.32 14.4436 174.303 15.0444 174.337 15.6451C174.337 15.7597 174.564 15.863 174.686 15.9748L174.746 15.9077C174.746 15.9245 174.789 15.9441 174.786 15.958C174.729 16.1648 175.019 16.5169 174.564 16.5588C173.93 16.6314 173.564 16.447 173.538 16.0167C173.504 15.4579 173.521 14.8991 173.516 14.3403C173.516 14.1754 173.516 14.0106 173.516 13.829L173.115 13.7563V13.1807L173.504 13.1221V12.2363H174.311V13.1332L174.777 13.1779V13.7787L174.32 13.815Z" fill="white" fill-opacity="0.5"/>
<path d="M175.527 21.9429V22.633C175.308 22.633 175.106 22.647 174.907 22.633C174.456 22.5995 174.271 22.4151 174.265 21.9736C174.265 21.4148 174.265 20.8336 174.265 20.2636V19.8864L173.845 19.8389V19.2522L174.251 19.1879V18.3105H175.055V19.1907L175.515 19.2354V19.8389L175.092 19.8724C175.073 19.9571 175.061 20.043 175.055 20.1295C175.055 20.5877 175.055 21.046 175.055 21.5042C175.032 21.8283 175.118 22.0127 175.527 21.9429Z" fill="white" fill-opacity="0.5"/>
<path d="M166.693 25.952L166.289 25.9045V25.3177L166.684 25.259V24.3789H167.474V25.2562L167.949 25.3121V25.8989L167.486 25.9604C167.486 26.5751 167.469 27.1842 167.503 27.7905C167.503 27.905 167.741 28.0056 167.866 28.1118L167.923 28.0503C167.923 28.0671 167.96 28.0894 167.957 28.1034C167.895 28.3074 168.185 28.6622 167.721 28.6986C167.076 28.76 166.73 28.5868 166.707 28.1397C166.676 27.5614 166.707 26.9802 166.687 26.4018L166.693 25.952Z" fill="white" fill-opacity="0.5"/>
<path d="M165.099 19.2125H165.824L165.878 19.6875C166.125 19.3159 166.383 19.0588 166.841 19.1287V19.9948L166.653 20.0144C166.15 20.0451 165.929 20.2407 165.909 20.7408C165.889 21.3388 165.909 21.9395 165.909 22.5682H165.102L165.099 19.2125Z" fill="white" fill-opacity="0.5"/>
<path d="M178.732 13.1456H179.459L179.502 13.5899C179.766 13.2686 180.011 12.9696 180.482 13.059V13.9364H180.238C180.146 13.9289 180.054 13.941 179.967 13.972C179.88 14.0029 179.802 14.0519 179.736 14.1156C179.67 14.1793 179.62 14.2562 179.587 14.341C179.554 14.4258 179.541 14.5165 179.547 14.6069C179.522 15.121 179.533 15.6352 179.528 16.1493C179.528 16.2582 179.528 16.3644 179.528 16.4901H178.746L178.732 13.1456Z" fill="white" fill-opacity="0.5"/>
<path d="M177.055 22.5834H176.149V19.2305H177.055V22.5834Z" fill="white" fill-opacity="0.5"/>
<path d="M165.699 28.642H164.789V25.2891H165.699V28.642Z" fill="white" fill-opacity="0.5"/>
<path d="M175.43 8.15625C175.43 8.39375 175.43 8.59212 175.43 8.7933C175.43 8.85756 175.43 8.92183 175.41 9.00844H173.595V8.15625H175.43Z" fill="white" fill-opacity="0.5"/>
<path d="M137.838 0.000462205C137.932 2.31927e-05 138.025 0.0182494 138.111 0.0540451C138.198 0.0898408 138.276 0.142467 138.341 0.20876C138.407 0.275053 138.458 0.353644 138.491 0.439808C138.525 0.525973 138.541 0.617932 138.537 0.710158C138.544 0.807175 138.53 0.904488 138.496 0.995914C138.462 1.08734 138.41 1.17088 138.342 1.24124C138.273 1.31159 138.191 1.36722 138.1 1.40459C138.008 1.44196 137.91 1.46025 137.811 1.45831C137.712 1.45636 137.615 1.43422 137.525 1.3933C137.436 1.35237 137.356 1.29354 137.29 1.22056C137.225 1.14758 137.176 1.06203 137.146 0.969358C137.116 0.87668 137.106 0.778897 137.116 0.682217C137.117 0.5904 137.136 0.499585 137.173 0.415175C137.209 0.330766 137.263 0.254487 137.33 0.190879C137.398 0.127271 137.477 0.077634 137.565 0.0449212C137.652 0.0122084 137.745 -0.0029112 137.838 0.000462205Z" fill="white" fill-opacity="0.5"/>
<path d="M165.238 24.8677C164.767 24.8677 164.767 24.8677 164.767 24.4346C164.767 24.0015 164.767 24.0379 165.272 24.0379C165.727 24.0379 165.727 24.0379 165.727 24.4542C165.727 24.8705 165.727 24.8677 165.238 24.8677Z" fill="white" fill-opacity="0.5"/>
<path d="M177.056 18V18.7684H176.152V18H177.056Z" fill="white" fill-opacity="0.5"/>
</svg>
