<svg width="184" height="31" viewBox="0 0 184 31" fill="none" xmlns="http://www.w3.org/2000/svg">
<path d="M90.9999 11.3291C89.1016 11.9077 87.8886 13.392 86.3902 14.3995C86.1123 14.587 85.8381 14.7825 85.5509 14.9481C84.9444 15.2993 84.2872 15.3711 83.6976 14.994C82.8338 14.4394 82.0189 13.797 81.1909 13.1825C80.7703 12.8713 80.3797 12.5122 79.9497 12.2149C79.4108 11.8418 78.8156 11.7959 78.2711 12.163C77.3735 12.7715 76.5117 13.4339 75.6329 14.0723C75.2198 14.3716 74.818 14.6928 74.3843 14.9521C73.7008 15.3631 72.976 15.3611 72.3169 14.9262C71.5396 14.4135 70.8092 13.8249 69.9849 13.2184C71.6954 12.7935 72.7526 11.4807 74.0519 10.585C74.4275 10.3256 74.7917 10.0503 75.1673 9.79092C76.0103 9.20637 76.8816 9.23031 77.6946 9.7989C78.5847 10.4194 79.4202 11.1276 80.2783 11.7979C80.4379 11.9216 80.5975 12.0453 80.7534 12.175C81.4763 12.7755 82.2274 12.8035 82.9822 12.2628C83.7351 11.7241 84.4674 11.1555 85.2147 10.6069C85.6579 10.2797 86.0954 9.94254 86.5592 9.65326C87.1488 9.28418 87.821 9.17445 88.4143 9.52757C89.2874 10.0483 90.0986 10.6907 90.9999 11.3291Z" fill="url(#paint0_linear)"/>
<path d="M17.9904 11.8325C17.9904 11.4035 17.9904 11.0584 17.9904 10.6853C18.6025 10.6853 19.1865 10.6853 19.8043 10.6853C19.8043 15.0545 19.8043 19.4236 19.8043 23.8746C19.2034 23.4018 18.6326 22.9649 18.0806 22.502C18.0036 22.4382 17.9979 22.2506 17.9979 22.119C17.9923 21.0277 17.9942 19.9364 17.9942 18.7393C16.999 19.8386 15.8104 20.1558 14.5073 19.9683C13.1948 19.7808 12.1752 19.0506 11.4655 17.8615C10.2675 15.8565 10.6844 12.9736 12.3724 11.4893C13.7807 10.2564 16.2723 9.90722 17.9904 11.8325ZM18.0787 15.252C18.0806 13.5741 16.9108 12.2754 15.388 12.2654C13.8689 12.2554 12.6578 13.5582 12.6465 15.2101C12.6372 16.856 13.837 18.1847 15.3504 18.2067C16.8619 18.2286 18.0768 16.9139 18.0787 15.252Z" fill="black"/>
<path d="M41.5311 11.7272C41.5311 10.7277 41.5442 9.82195 41.5236 8.91819C41.5161 8.60497 41.6006 8.39948 41.8465 8.21993C42.3404 7.85882 42.8173 7.46978 43.3524 7.04883C43.3524 11.3442 43.3524 15.5597 43.3524 19.8252C42.7966 19.8252 42.2596 19.8351 41.7245 19.8132C41.6569 19.8112 41.5499 19.6376 41.5405 19.5339C41.5142 19.2785 41.5311 19.0172 41.5311 18.7119C39.276 20.4775 37.0847 20.4037 35.5093 18.5643C33.9997 16.8007 33.9678 13.818 35.3873 12.0385C36.6247 10.4843 39.4224 9.64439 41.5311 11.7272ZM41.625 15.2704C41.64 13.5966 40.4683 12.2819 38.9493 12.2679C37.4208 12.2539 36.206 13.5467 36.1985 15.1966C36.1909 16.8645 37.3739 18.1932 38.8817 18.2092C40.4063 18.2231 41.6099 16.9363 41.625 15.2704Z" fill="black"/>
<path d="M55.9795 15.9413C56.1973 17.0586 56.77 17.7967 57.7539 18.09C59.0964 18.491 60.2549 18.1818 61.1224 16.883C61.6181 17.1763 62.1063 17.4655 62.6415 17.7808C62.2866 18.4232 61.8322 18.908 61.2764 19.289C59.1058 20.7694 54.9036 20.1748 54.2295 16.1568C53.8577 13.9383 54.9298 11.7298 56.8094 10.8719C58.7697 9.97412 61.1037 10.5886 62.2847 12.3123C62.9795 13.3238 63.1578 14.477 63.1184 15.6939C63.1071 16.0191 62.8912 15.9413 62.7222 15.9413C60.6286 15.9453 58.535 15.9433 56.4414 15.9433C56.3005 15.9413 56.1597 15.9413 55.9795 15.9413ZM61.1468 14.2276C61.0623 13.0684 59.9958 12.2106 58.6627 12.2026C57.4628 12.1946 56.2386 13.1642 56.1316 14.2276C57.8027 14.2276 59.4738 14.2276 61.1468 14.2276Z" fill="black"/>
<path d="M21.475 10.6777C22.1341 10.6777 22.7349 10.6777 23.3827 10.6777C23.3827 10.8493 23.3827 10.9989 23.3827 11.1486C23.3827 12.6608 23.3809 14.1711 23.3846 15.6833C23.3846 15.8928 23.3902 16.1043 23.4147 16.3118C23.5667 17.5467 24.2333 18.227 25.3149 18.2589C26.4772 18.2949 27.3484 17.5786 27.5549 16.4035C27.6038 16.1302 27.6263 15.8489 27.6263 15.5716C27.6338 14.1152 27.63 12.6608 27.63 11.2044C27.63 11.0388 27.63 10.8732 27.63 10.6817C28.2609 10.6817 28.8599 10.6817 29.4946 10.6817C29.5021 10.8034 29.5152 10.9231 29.5152 11.0448C29.5171 13.8299 29.5134 16.615 29.5246 19.4001C29.5265 19.7213 29.4552 19.853 29.1303 19.835C28.6478 19.8071 28.1633 19.8271 27.6526 19.8271C27.6526 19.462 27.6526 19.1447 27.6526 18.7497C27.5287 18.8595 27.4498 18.9173 27.3822 18.9871C26.2894 20.1443 24.9769 20.234 23.6062 19.7732C22.3031 19.3343 21.6834 18.251 21.5501 16.8704C21.46 15.9427 21.4825 14.999 21.4731 14.0633C21.4656 12.9481 21.475 11.8309 21.475 10.6777Z" fill="black"/>
<path d="M53.0421 19.8059C52.4338 19.8059 51.846 19.8059 51.1964 19.8059C51.1964 19.6224 51.1964 19.4608 51.1964 19.2992C51.1964 17.8169 51.1964 16.3326 51.1964 14.8502C51.1964 14.6547 51.1964 14.4572 51.1795 14.2637C51.0706 13.0088 50.4077 12.2866 49.2849 12.1908C48.2259 12.099 47.2645 12.8472 47.026 13.9844C46.9528 14.3355 46.9359 14.7046 46.9321 15.0657C46.9228 16.4782 46.9284 17.8927 46.9284 19.3052C46.9284 19.4568 46.9284 19.6084 46.9284 19.794C46.2975 19.794 45.7004 19.794 45.0732 19.794C45.0732 16.7615 45.0732 13.735 45.0732 10.6826C45.6816 10.6826 46.2806 10.6826 46.9134 10.6826C46.9134 11.0117 46.9134 11.329 46.9134 11.716C47.0129 11.6362 47.0636 11.6043 47.103 11.5624C48.3235 10.2357 50.5129 10.084 51.8648 11.2472C52.7398 12.0013 53.0515 13.0527 53.074 14.1899C53.1097 16.0074 53.0853 17.8269 53.0834 19.6463C53.0834 19.6862 53.0647 19.7241 53.0421 19.8059Z" fill="black"/>
<path d="M66.8683 7C66.8683 8.27285 66.8683 9.43995 66.8683 10.645C67.4804 10.645 68.055 10.645 68.6596 10.645C68.6596 11.2475 68.6596 11.8081 68.6596 12.4146C68.0719 12.4146 67.4973 12.4146 66.9566 12.4146C66.9096 12.4804 66.8796 12.5004 66.8796 12.5223C66.8852 13.9348 66.857 15.3473 66.9134 16.7558C66.9472 17.6197 67.242 17.8591 68.055 17.9409C68.6934 18.0047 68.6934 18.0047 68.6934 18.6711C68.6934 18.7968 68.6953 18.9224 68.6934 19.0481C68.6765 19.9479 68.8399 19.8242 67.9292 19.8202C67.6156 19.8202 67.2983 19.7743 66.9885 19.7105C65.7811 19.4591 65.1052 18.6332 65.047 17.2286C64.985 15.7623 64.9925 14.2939 64.97 12.8256C64.9681 12.7158 64.97 12.6041 64.97 12.4465C64.493 12.4465 64.0386 12.4465 63.5542 12.4465C63.5542 11.836 63.5542 11.2734 63.5542 10.6649C64.0067 10.6649 64.4611 10.6649 64.97 10.6649C64.97 10.0265 64.9493 9.42998 64.9812 8.83545C64.9906 8.64592 65.0995 8.4105 65.2366 8.2908C65.7323 7.86186 66.2618 7.47283 66.8683 7Z" fill="black"/>
<path d="M0 8.50391C0.632779 8.50391 1.23364 8.50391 1.87017 8.50391C1.87017 11.6282 1.87017 14.7285 1.87017 17.8926C3.43616 17.8926 4.96459 17.8926 6.5118 17.8926C6.5118 18.565 6.5118 19.1735 6.5118 19.8039C4.33557 19.8039 2.18187 19.8039 0 19.8039C0 16.0412 0 12.2865 0 8.50391Z" fill="black"/>
<path d="M7.66895 10.6816C8.28483 10.6816 8.88381 10.6816 9.50907 10.6816C9.50907 13.7201 9.50907 16.7466 9.50907 19.801C8.89319 19.801 8.29609 19.801 7.66895 19.801C7.66895 16.7586 7.66895 13.7321 7.66895 10.6816Z" fill="black"/>
<path d="M31.2202 10.668C31.8342 10.668 32.4238 10.668 33.0472 10.668C33.0472 13.7064 33.0472 16.7329 33.0472 19.7933C32.4445 19.7933 31.8474 19.7933 31.2202 19.7933C31.2202 16.7669 31.2202 13.7404 31.2202 10.668Z" fill="black"/>
<path d="M9.53288 7.48373C9.53288 8.11416 9.54039 8.68475 9.52349 9.25534C9.52161 9.33514 9.39768 9.47479 9.32445 9.47878C8.83813 9.49873 8.34994 9.49873 7.86362 9.48078C7.78663 9.47679 7.65332 9.34711 7.64956 9.2713C7.63078 8.75458 7.62891 8.23586 7.64956 7.71914C7.65332 7.63735 7.80165 7.49769 7.88803 7.4937C8.41378 7.47176 8.93953 7.48373 9.53288 7.48373Z" fill="black"/>
<path d="M31.209 9.48851C31.209 8.80221 31.209 8.17776 31.209 7.48547C31.7723 7.48547 32.3337 7.47949 32.8933 7.49545C32.9571 7.49744 33.0698 7.62712 33.0716 7.70294C33.0867 8.21965 33.0904 8.73837 33.0698 9.25509C33.066 9.33689 32.9158 9.47654 32.8313 9.48053C32.3056 9.50048 31.7798 9.48851 31.209 9.48851Z" fill="black"/>
<path d="M108.601 19.6484C108.138 20.1641 107.632 20.5521 107.086 20.8125C106.539 21.0677 105.948 21.1953 105.312 21.1953C104.14 21.1953 103.211 20.7995 102.523 20.0078C101.966 19.362 101.687 18.6406 101.687 17.8438C101.687 17.1354 101.914 16.4974 102.367 15.9297C102.825 15.3568 103.507 14.8542 104.414 14.4219C103.898 13.8281 103.554 13.3464 103.382 12.9766C103.211 12.6068 103.125 12.25 103.125 11.9062C103.125 11.2188 103.393 10.6224 103.929 10.1172C104.471 9.60677 105.151 9.35156 105.968 9.35156C106.75 9.35156 107.388 9.59115 107.882 10.0703C108.382 10.5495 108.632 11.125 108.632 11.7969C108.632 12.8854 107.911 13.8151 106.468 14.5859L108.523 17.2031C108.757 16.7448 108.94 16.2135 109.07 15.6094L110.531 15.9219C110.281 16.9219 109.942 17.7448 109.515 18.3906C110.041 19.0885 110.638 19.6745 111.304 20.1484L110.359 21.2656C109.791 20.901 109.205 20.362 108.601 19.6484ZM105.742 13.6797C106.351 13.3203 106.744 13.0052 106.922 12.7344C107.104 12.4635 107.195 12.1641 107.195 11.8359C107.195 11.4453 107.07 11.1276 106.82 10.8828C106.575 10.6328 106.268 10.5078 105.898 10.5078C105.518 10.5078 105.2 10.6302 104.945 10.875C104.695 11.1198 104.57 11.4193 104.57 11.7734C104.57 11.9505 104.614 12.138 104.703 12.3359C104.797 12.5286 104.935 12.7344 105.117 12.9531L105.742 13.6797ZM107.718 18.5391L105.14 15.3438C104.38 15.7969 103.867 16.2188 103.601 16.6094C103.336 16.9948 103.203 17.3776 103.203 17.7578C103.203 18.2214 103.388 18.7031 103.757 19.2031C104.127 19.7031 104.651 19.9531 105.328 19.9531C105.75 19.9531 106.185 19.8229 106.632 19.5625C107.086 19.2969 107.448 18.9557 107.718 18.5391Z" fill="#4F4F4F"/>
<path d="M130.82 22.8296L131.8 22.5937C131.042 19.6073 130.303 16.6407 129.555 13.6401L131.596 13.1315C132.343 16.1236 133.093 19.0816 133.829 22.0823L134.798 21.8407L134.23 19.4738C133.093 14.9122 131.957 10.3506 130.82 5.78896C130.76 5.54743 130.8 5.41672 131.033 5.31443C131.65 5.03027 132.258 4.74612 132.886 4.46197C132.738 7.80076 133.724 10.8725 134.46 13.9811C134.818 15.5041 135.256 17.013 135.73 18.5019C135.96 19.155 136.271 19.7765 136.656 20.3518C136.885 20.6903 137.189 20.9706 137.546 21.1701C137.73 21.2765 137.934 21.3426 138.146 21.364C138.357 21.3855 138.571 21.3619 138.773 21.2948C138.974 21.2277 139.159 21.1185 139.316 20.9746C139.472 20.8306 139.596 20.6552 139.68 20.4598C139.858 20.0543 139.968 19.6223 140.007 19.1811C140.14 17.7603 139.833 16.385 139.501 14.9785L138.555 15.2143C138.682 15.9446 138.839 16.6351 138.921 17.3511C138.981 18.0124 138.994 18.6771 138.961 19.3402C138.961 19.7181 138.878 20.1614 138.438 20.2893C137.946 20.437 137.617 20.079 137.426 19.721C137.012 18.9911 136.672 18.2221 136.409 17.425C135.412 13.9413 134.48 10.4377 133.965 6.84317C133.891 6.13342 133.875 5.41863 133.92 4.70634C133.908 4.55058 133.951 4.39556 134.04 4.26762C134.13 4.13968 134.261 4.0467 134.412 4.00448C134.571 3.95323 134.744 3.95956 134.9 4.02236C135.056 4.08516 135.184 4.20047 135.264 4.34831C135.583 4.86459 135.858 5.40633 136.088 5.96798C136.327 6.55333 136.48 7.17563 136.682 7.82918L137.64 7.59049C137.299 6.25213 136.929 4.95071 136.091 3.72885C136.705 3.72885 137.253 3.69476 137.796 3.71181C137.87 3.71181 137.972 3.88798 138 3.99596C138.487 5.91115 138.968 7.82823 139.441 9.74721C140.269 13.0661 141.097 16.3812 141.925 19.6925C141.95 19.8005 141.987 19.9057 142.027 20.0449L142.996 19.8091L138.986 3.72885C139.779 3.91071 140.495 4.06131 141.2 4.25169C141.297 4.27727 141.365 4.49891 141.399 4.64383C142.274 8.12564 143.145 11.6084 144.01 15.0921C144.334 16.3973 144.657 17.6978 144.979 18.9935C145.005 19.0901 145.036 19.1868 145.073 19.3203L146.048 19.0845C144.851 14.288 143.661 9.5142 142.47 4.71202C146.448 6.17541 150.833 10.5798 150.853 17.1039C150.85 20.1187 149.833 23.0449 147.965 25.4112C146.097 27.7775 143.487 29.4463 140.555 30.1488C137.623 30.8513 134.54 30.5467 131.803 29.2839C129.065 28.0212 126.832 25.8738 125.464 23.1876C122.716 17.7887 124.142 11.8528 127.217 8.45147C127.819 10.8639 128.413 13.248 129.01 15.632C129.607 18.016 130.203 20.4115 130.82 22.8296Z" fill="#9A1E22"/>
<path d="M129.814 5.99023L131.351 12.1535L129.311 12.6593C129.081 11.7415 128.862 10.8635 128.643 9.98542C128.461 9.24947 128.262 8.52488 128.097 7.77187C128.081 7.71156 128.078 7.64848 128.088 7.58678C128.097 7.52508 128.12 7.46614 128.154 7.41384C128.674 6.94499 129.214 6.49887 129.814 5.99023Z" fill="#9A1E22"/>
<path d="M154.553 5.68359H155.405V7.53627H157.022V5.68359H157.874V10.5994H157.022V8.4484H155.399V10.6136H154.547L154.553 5.68359Z" fill="#9A1E22"/>
<path d="M162.077 7.19726H162.748L162.79 7.44163C163.063 7.30349 163.348 7.19306 163.643 7.11201C163.794 7.08292 163.95 7.10766 164.084 7.1819C164.219 7.25615 164.323 7.37521 164.379 7.51835C164.661 7.3437 164.963 7.20437 165.28 7.10349C165.39 7.08279 165.504 7.08567 165.613 7.11195C165.722 7.13823 165.825 7.18732 165.914 7.25599C166.003 7.32467 166.077 7.41139 166.13 7.51046C166.183 7.60954 166.215 7.71874 166.223 7.83092C166.274 8.74305 166.223 9.66086 166.223 10.5957H165.487V9.66086C165.487 9.26305 165.487 8.86524 165.487 8.47026C165.487 8.07529 165.345 7.88491 165.075 7.86786C164.805 7.85081 164.569 8.06392 164.555 8.45606C164.538 9.05562 164.555 9.65802 164.555 10.2604C164.555 10.3627 164.555 10.4622 164.555 10.5929H163.779V9.766C163.779 9.35682 163.779 8.94764 163.779 8.53846C163.779 8.06961 163.631 7.87638 163.319 7.88491C163.006 7.89343 162.853 8.09234 162.85 8.53846C162.85 9.21758 162.85 9.89671 162.85 10.6014H162.077V7.19726Z" fill="#9A1E22"/>
<path d="M161.696 13.3743H162.381L162.429 13.5903C162.713 13.4851 163.014 13.2891 163.304 13.3061C163.594 13.3232 163.838 13.5448 164.103 13.6755L164.068 13.7664C164.165 13.6589 164.268 13.5583 164.378 13.4652C164.496 13.3747 164.633 13.3138 164.78 13.2878C164.926 13.2617 165.076 13.2713 165.217 13.3156C165.359 13.3599 165.488 13.4377 165.593 13.5424C165.698 13.6471 165.777 13.7756 165.822 13.917C165.88 14.1357 165.907 14.3615 165.901 14.5876C165.901 15.3122 165.901 16.0368 165.901 16.787H165.091V15.7072C165.091 15.298 165.091 14.8888 165.091 14.4797C165.095 14.4281 165.088 14.3763 165.071 14.3274C165.054 14.2785 165.028 14.2334 164.994 14.1947C164.959 14.1561 164.918 14.1247 164.871 14.1024C164.824 14.0801 164.774 14.0673 164.722 14.0648C164.614 14.0445 164.502 14.0669 164.411 14.1273C164.319 14.1878 164.254 14.2815 164.23 14.3887C164.185 14.5747 164.163 14.7656 164.165 14.957C164.165 15.5566 164.165 16.1562 164.165 16.7813H163.392C163.392 16.2499 163.392 15.7186 163.392 15.19C163.392 14.9514 163.392 14.7127 163.378 14.4768C163.38 14.4222 163.371 14.3677 163.351 14.3168C163.331 14.2659 163.3 14.2197 163.262 14.1811C163.223 14.1424 163.177 14.1121 163.126 14.0921C163.075 14.0721 163.021 14.0628 162.966 14.0648C162.909 14.0555 162.851 14.0584 162.795 14.0731C162.74 14.0879 162.688 14.1142 162.643 14.1504C162.598 14.1866 162.561 14.2319 162.535 14.2832C162.509 14.3346 162.494 14.3909 162.491 14.4484C162.46 14.832 162.463 15.2185 162.46 15.6049C162.457 15.9914 162.46 16.3721 162.46 16.7813H161.71L161.696 13.3743Z" fill="#9A1E22"/>
<path d="M157.649 13.4965C157.46 13.5131 157.27 13.5131 157.081 13.4965C157.027 13.4846 156.977 13.4609 156.934 13.4269C156.89 13.393 156.855 13.3497 156.831 13.3004C156.703 12.9253 156.504 12.6497 156.069 12.6383C155.714 12.6383 155.43 12.86 155.285 13.3231C155.064 13.9745 155.064 14.6807 155.285 15.3321C155.394 15.6002 155.588 15.8256 155.836 15.9743C155.921 16.0173 156.015 16.0401 156.111 16.0407C156.206 16.0414 156.3 16.02 156.386 15.9781C156.471 15.9363 156.546 15.8752 156.604 15.7995C156.662 15.7239 156.702 15.6359 156.72 15.5424C156.834 15.1161 157.073 15.0508 157.433 15.1048C157.487 15.1048 157.544 15.1048 157.598 15.1048C157.695 15.6731 157.223 16.5255 156.672 16.8097C156.387 16.9383 156.07 16.9743 155.764 16.9126C155.458 16.8509 155.179 16.6946 154.967 16.4658C154.827 16.3164 154.714 16.1444 154.632 15.9572C154.418 15.4474 154.31 14.8998 154.313 14.3472C154.316 13.7946 154.43 13.2482 154.649 12.7406C154.747 12.4519 154.934 12.2016 155.183 12.0255C155.432 11.8494 155.73 11.7566 156.035 11.7603C156.962 11.7375 157.664 12.4707 157.649 13.4965Z" fill="#9A1E22"/>
<path d="M167.354 16.4584V18.1406H166.598V13.3555H167.328L167.356 13.6851C167.541 13.5368 167.742 13.4108 167.956 13.31C168.211 13.2352 168.484 13.2599 168.722 13.3791C168.959 13.4983 169.142 13.7031 169.235 13.9522C169.39 14.3116 169.469 14.6998 169.464 15.0916C169.46 15.4833 169.373 15.8696 169.209 16.2254C168.948 16.8392 168.075 17.2569 167.354 16.4584ZM168.669 15.1116C168.632 14.8651 168.563 14.6245 168.465 14.3955C168.413 14.3138 168.344 14.2441 168.263 14.1912C168.183 14.1383 168.091 14.1033 167.996 14.0886C167.898 14.096 167.804 14.1254 167.72 14.1746C167.636 14.2238 167.564 14.2916 167.51 14.3728C167.388 14.5924 167.322 14.8385 167.317 15.0896C167.312 15.3407 167.368 15.5892 167.481 15.8134C167.534 15.9012 167.606 15.9756 167.693 16.0308C167.779 16.086 167.877 16.1205 167.979 16.1317C168.079 16.1151 168.175 16.0771 168.26 16.0203C168.345 15.9634 168.417 15.889 168.47 15.802C168.571 15.5832 168.638 15.3504 168.669 15.1116Z" fill="#9A1E22"/>
<path d="M178.299 15.3459H175.946C175.929 15.5112 175.969 15.6773 176.059 15.8171C176.149 15.9569 176.283 16.0622 176.44 16.1159C176.59 16.1617 176.749 16.1677 176.902 16.1333C177.055 16.099 177.197 16.0254 177.313 15.9198C177.537 15.7607 177.881 15.7834 178.273 15.7096C178.227 15.9612 178.114 16.196 177.948 16.3902C177.781 16.5843 177.566 16.7309 177.324 16.8149C176.432 17.1303 175.156 16.7297 175.088 15.3942C175.071 15.1229 175.082 14.8507 175.119 14.5815C175.186 14.2133 175.382 13.8809 175.671 13.643C175.959 13.405 176.323 13.2769 176.697 13.2814C177.072 13.2858 177.432 13.4224 177.715 13.6671C177.999 13.9118 178.186 14.2488 178.245 14.6184C178.287 14.8486 178.273 15.0617 178.299 15.3459ZM175.977 14.6895H177.367C177.37 14.5999 177.355 14.5106 177.323 14.427C177.291 14.3435 177.242 14.2674 177.179 14.2035C177.116 14.1396 177.041 14.0893 176.958 14.0555C176.875 14.0218 176.786 14.0055 176.696 14.0075C176.301 14.0018 176.062 14.2092 175.977 14.6951V14.6895Z" fill="#9A1E22"/>
<path d="M174.426 27.6772C174.403 27.841 174.437 28.0077 174.522 28.1498C174.606 28.2918 174.737 28.4008 174.892 28.4586C175.04 28.5102 175.2 28.5213 175.354 28.4909C175.509 28.4604 175.652 28.3895 175.77 28.2853C176 28.1262 176.338 28.1347 176.636 28.0665L176.705 28.1659C176.667 28.298 176.618 28.4264 176.557 28.5496C176.384 28.8202 176.133 29.0317 175.837 29.1561C175.541 29.2805 175.214 29.3117 174.9 29.2457C174.58 29.2139 174.28 29.0771 174.046 28.8565C173.812 28.636 173.658 28.3442 173.607 28.0267C173.55 27.6808 173.545 27.3283 173.593 26.981C173.609 26.7817 173.665 26.5875 173.757 26.4099C173.849 26.2322 173.975 26.0747 174.128 25.9464C174.282 25.8181 174.459 25.7217 174.65 25.6627C174.841 25.6037 175.042 25.5834 175.241 25.6029C175.645 25.6074 176.031 25.7721 176.314 26.0608C176.597 26.3496 176.754 26.7388 176.75 27.143C176.75 27.3078 176.75 27.4755 176.75 27.6772H174.426ZM174.457 27.0577H175.835C175.842 26.9674 175.83 26.8766 175.799 26.7912C175.769 26.7058 175.721 26.6277 175.659 26.5618C175.596 26.496 175.521 26.444 175.437 26.409C175.354 26.374 175.264 26.3569 175.173 26.3587C174.767 26.3417 174.502 26.5917 174.457 27.0577Z" fill="#9A1E22"/>
<path d="M162.324 21.4955C162.3 21.6552 162.329 21.8183 162.408 21.9592C162.487 22.1002 162.61 22.211 162.759 22.2741C162.902 22.3493 163.066 22.3742 163.224 22.3448C163.383 22.3155 163.527 22.2335 163.634 22.1121C163.918 21.8024 164.251 22.0354 164.634 21.9274C164.584 22.0825 164.522 22.2335 164.449 22.3792C164.265 22.6629 163.995 22.8807 163.679 23.0013C163.363 23.1218 163.017 23.1388 162.691 23.0498C162.379 22.9964 162.094 22.8439 161.876 22.6151C161.658 22.3862 161.521 22.0932 161.483 21.7797C161.445 21.4645 161.445 21.1458 161.483 20.8306C161.51 20.4391 161.689 20.0738 161.982 19.813C162.276 19.5522 162.659 19.4167 163.051 19.4354C163.246 19.4215 163.441 19.4461 163.626 19.5077C163.81 19.5693 163.981 19.6668 164.128 19.7946C164.275 19.9223 164.396 20.0779 164.482 20.2522C164.569 20.4266 164.621 20.6164 164.634 20.8107C164.663 21.021 164.663 21.237 164.68 21.4955H162.324ZM162.361 20.8818H163.733C163.739 20.7879 163.726 20.6939 163.694 20.6054C163.663 20.5169 163.613 20.4358 163.549 20.3672C163.484 20.2986 163.407 20.244 163.32 20.2066C163.234 20.1692 163.141 20.1499 163.047 20.1499C162.953 20.1499 162.86 20.1692 162.774 20.2066C162.688 20.244 162.61 20.2986 162.545 20.3672C162.481 20.4358 162.432 20.5169 162.4 20.6054C162.368 20.6939 162.355 20.7879 162.361 20.8818Z" fill="#9A1E22"/>
<path d="M170.158 22.9398C169.589 23.0734 169.322 23.008 169.206 22.7579C168.868 22.8972 168.516 23.002 168.157 23.0705C167.929 23.0963 167.7 23.0315 167.52 22.8902C167.339 22.7488 167.221 22.5421 167.191 22.3147C167.072 21.7464 167.296 21.2349 167.788 21.0502C168.036 20.9734 168.29 20.9155 168.547 20.8769C168.704 20.855 168.859 20.8198 169.01 20.7717C169.057 20.7528 169.099 20.722 169.132 20.6821C169.164 20.6423 169.185 20.5948 169.194 20.5442C169.202 20.4937 169.198 20.4418 169.181 20.3935C169.163 20.3453 169.134 20.3023 169.095 20.2688C168.965 20.1894 168.815 20.1503 168.664 20.1564C168.512 20.1625 168.365 20.2134 168.243 20.3029C167.899 20.6723 167.83 20.695 167.316 20.587C167.289 20.3551 167.346 20.1212 167.476 19.9274C167.607 19.7336 167.802 19.5927 168.027 19.53C168.311 19.4552 168.605 19.4255 168.899 19.4419C169.751 19.4845 170.064 19.8255 170.067 20.6893C170.067 21.2093 170.067 21.7322 170.067 22.255C170.083 22.4849 170.113 22.7137 170.158 22.9398ZM169.143 21.3599C168.859 21.4281 168.575 21.4821 168.322 21.5673C168.264 21.5831 168.21 21.6109 168.164 21.6489C168.118 21.6869 168.08 21.7343 168.053 21.788C168.026 21.8416 168.011 21.9003 168.008 21.9602C168.006 22.0201 168.016 22.0799 168.038 22.1357C168.112 22.4198 168.322 22.4567 168.581 22.4198C169.064 22.3232 169.257 21.9595 169.143 21.3599Z" fill="#9A1E22"/>
<path d="M166.93 8.24192C166.93 7.67362 167.188 7.25876 167.703 7.17635C168.147 7.11045 168.599 7.12295 169.038 7.21329C169.49 7.30138 169.661 7.59121 169.672 8.06575C169.672 8.59711 169.672 9.13132 169.672 9.66553C169.672 9.96957 169.74 10.2736 169.777 10.5862C169.232 10.7197 168.953 10.6515 168.831 10.3873C168.518 10.5318 168.192 10.6441 167.856 10.7226C167.737 10.7428 167.616 10.7393 167.499 10.7122C167.381 10.6851 167.27 10.6349 167.172 10.5645C167.075 10.4942 166.992 10.4052 166.929 10.3025C166.866 10.1999 166.823 10.0858 166.805 9.96673C166.683 9.36433 166.933 8.83012 167.47 8.67668C167.814 8.5687 168.18 8.54313 168.533 8.45504C168.593 8.45001 168.65 8.4274 168.697 8.39002C168.744 8.35265 168.78 8.30216 168.799 8.24488C168.817 8.18759 168.819 8.12604 168.803 8.0679C168.787 8.00977 168.754 7.95763 168.709 7.91799C168.58 7.83603 168.429 7.79561 168.277 7.80222C168.124 7.80883 167.977 7.86214 167.856 7.95493C167.532 8.32149 167.532 8.32149 166.93 8.24192ZM168.777 9.00914C168.515 9.07165 168.251 9.12848 167.993 9.20236C167.931 9.21521 167.872 9.24153 167.822 9.27945C167.771 9.31738 167.729 9.36599 167.699 9.42184C167.669 9.47769 167.652 9.53941 167.649 9.60264C167.646 9.66587 167.656 9.72905 167.68 9.78771C167.757 10.0719 167.995 10.1088 168.248 10.052C168.714 9.94684 168.896 9.59165 168.777 9.01766V9.00914Z" fill="#9A1E22"/>
<path d="M161.19 14.9803C161.144 15.2885 161.08 15.594 161 15.8952C160.907 16.1868 160.725 16.4416 160.479 16.6233C160.233 16.805 159.935 16.9044 159.629 16.9072C159.324 16.9101 159.025 16.8162 158.775 16.6391C158.526 16.4619 158.339 16.2106 158.241 15.9208C158.115 15.5982 158.062 15.2515 158.086 14.906C158.111 14.5605 158.212 14.2248 158.383 13.9232C158.508 13.7099 158.687 13.533 158.902 13.4102C159.117 13.2873 159.36 13.2227 159.607 13.2227C159.855 13.2227 160.098 13.2873 160.313 13.4102C160.528 13.533 160.707 13.7099 160.832 13.9232C160.983 14.2639 161.103 14.6178 161.19 14.9803ZM160.372 15.0598C160.34 14.8127 160.27 14.572 160.164 14.3466C160.103 14.2586 160.024 14.1845 159.931 14.1291C159.839 14.0738 159.737 14.0385 159.63 14.0255C159.523 14.035 159.418 14.0685 159.325 14.1236C159.233 14.1787 159.153 14.2539 159.093 14.3438C158.967 14.5677 158.901 14.8201 158.901 15.0769C158.901 15.3337 158.967 15.5861 159.093 15.81C159.151 15.9008 159.229 15.9771 159.321 16.0328C159.413 16.0885 159.517 16.1221 159.624 16.1311C159.736 16.1138 159.842 16.0735 159.937 16.0128C160.032 15.9522 160.113 15.8725 160.176 15.7787C160.278 15.5509 160.345 15.3083 160.372 15.0598Z" fill="#9A1E22"/>
<path d="M180.845 21.1457C180.797 21.4598 180.731 21.771 180.649 22.0778C180.552 22.367 180.366 22.6184 180.119 22.7966C179.871 22.9748 179.574 23.0706 179.269 23.0706C178.964 23.0706 178.667 22.9748 178.419 22.7966C178.172 22.6184 177.986 22.367 177.889 22.0778C177.763 21.7475 177.713 21.3927 177.743 21.0402C177.774 20.6877 177.884 20.3468 178.066 20.0432C178.194 19.842 178.371 19.6764 178.58 19.5616C178.79 19.4469 179.025 19.3867 179.263 19.3867C179.502 19.3867 179.737 19.4469 179.946 19.5616C180.156 19.6764 180.333 19.842 180.461 20.0432C180.625 20.3973 180.753 20.7666 180.845 21.1457ZM179.992 21.248C179.948 21.0103 179.891 20.7751 179.822 20.5433C179.779 20.4289 179.701 20.3312 179.599 20.2646C179.496 20.1981 179.375 20.1663 179.253 20.1739C179.133 20.1653 179.013 20.195 178.911 20.2589C178.809 20.3227 178.73 20.4173 178.685 20.5291C178.576 20.7547 178.521 21.0026 178.524 21.2532C178.528 21.5038 178.59 21.7501 178.705 21.9726C178.835 22.1473 179.025 22.267 179.239 22.3079C179.36 22.3342 179.486 22.3131 179.592 22.2492C179.697 22.1852 179.775 22.0832 179.807 21.9641C179.888 21.7298 179.955 21.4906 180.006 21.248H179.992Z" fill="#9A1E22"/>
<path d="M183.99 22.9668H183.214V22.3587C183.214 21.7904 183.214 21.2477 183.194 20.6907C183.201 20.6308 183.196 20.5701 183.178 20.5123C183.161 20.4546 183.132 20.401 183.093 20.3547C183.054 20.3085 183.006 20.2707 182.952 20.2434C182.899 20.2162 182.84 20.2002 182.78 20.1963C182.648 20.1731 182.513 20.2028 182.403 20.2789C182.294 20.355 182.218 20.4714 182.194 20.6026C182.147 20.8125 182.122 21.0268 182.12 21.242C182.12 21.8103 182.12 22.3786 182.12 22.9469H181.356V19.5371H182.063L182.103 19.7729C182.372 19.627 182.659 19.5162 182.956 19.4433C183.08 19.4191 183.209 19.4232 183.332 19.455C183.455 19.4869 183.569 19.5459 183.666 19.6276C183.763 19.7093 183.841 19.8117 183.894 19.9273C183.946 20.0429 183.972 20.1688 183.97 20.2957C184.021 21.1766 183.99 22.0518 183.99 22.9668Z" fill="#9A1E22"/>
<path d="M156.376 22.9629V19.553H157.101L157.152 19.894C157.276 19.7687 157.411 19.6555 157.556 19.5559C158.124 19.2291 158.948 19.5786 158.996 20.235C159.062 21.1358 159.013 22.0422 159.013 22.9714H158.249C158.249 22.4627 158.249 21.9655 158.249 21.4711C158.249 21.1869 158.249 20.9255 158.221 20.6555C158.225 20.5456 158.187 20.4382 158.114 20.3553C158.042 20.2724 157.941 20.2202 157.831 20.2094C157.713 20.1844 157.59 20.204 157.485 20.2642C157.38 20.3245 157.301 20.4214 157.263 20.5362C157.198 20.7402 157.163 20.9528 157.161 21.167C157.161 21.6558 157.161 22.1445 157.161 22.6304C157.161 22.7412 157.161 22.852 157.141 22.9771L156.376 22.9629Z" fill="#9A1E22"/>
<path d="M170.357 28.853C170.154 28.9907 169.934 29.1033 169.704 29.1883C169.047 29.336 168.544 29.0036 168.504 28.3358C168.45 27.4833 168.49 26.6138 168.49 25.7188H169.257V27.1395C169.257 27.3555 169.257 27.5714 169.257 27.7874C169.257 28.2733 169.399 28.4722 169.729 28.4779C170.059 28.4836 170.317 28.2449 170.332 27.7959C170.351 27.1168 170.332 26.4348 170.332 25.7273H171.11V29.1371H170.405L170.357 28.853Z" fill="#9A1E22"/>
<path d="M169.979 13.3555H170.786C170.786 13.7817 170.786 14.188 170.786 14.5944C170.786 14.9467 170.786 15.2991 170.806 15.6514C170.794 15.7601 170.826 15.8689 170.894 15.9544C170.962 16.0399 171.061 16.0954 171.169 16.1089C171.288 16.1374 171.412 16.1216 171.519 16.0646C171.627 16.0075 171.709 15.9131 171.752 15.7992C171.816 15.6057 171.848 15.4033 171.849 15.1996C171.849 14.6001 171.849 13.9977 171.849 13.3697H172.619V16.7653H171.908L171.883 16.5238C171.6 16.6693 171.3 16.7791 170.99 16.8505C170.88 16.8712 170.766 16.8684 170.656 16.8424C170.546 16.8163 170.443 16.7676 170.354 16.6993C170.264 16.6311 170.19 16.5448 170.135 16.446C170.081 16.3473 170.048 16.2382 170.038 16.126C169.984 15.8021 169.959 15.474 169.965 15.1456C169.973 14.5603 169.979 13.9721 169.979 13.3555Z" fill="#9A1E22"/>
<path d="M159.022 29.1319H158.249C158.249 28.5437 158.249 27.9669 158.249 27.3929C158.268 27.1902 158.254 26.9857 158.206 26.7877C158.136 26.6094 158.001 26.4642 157.829 26.3813C157.774 26.3616 157.716 26.3534 157.658 26.3572C157.6 26.361 157.544 26.3768 157.492 26.4035C157.441 26.4302 157.395 26.4672 157.359 26.5123C157.322 26.5574 157.295 26.6096 157.28 26.6655C157.202 26.8885 157.161 27.1227 157.158 27.3588C157.141 27.9271 157.158 28.5153 157.158 29.1206H156.394V25.7107H157.101L157.175 26.0659C157.28 25.9088 157.426 25.7833 157.598 25.7032C157.769 25.6231 157.959 25.5913 158.147 25.6113C158.375 25.6119 158.594 25.7013 158.757 25.8603C158.92 26.0194 159.015 26.2358 159.022 26.4638C159.048 27.3304 159.022 28.2141 159.022 29.1319Z" fill="#9A1E22"/>
<path d="M160.525 7.18253H161.287V10.5924H160.599L160.52 10.2627C160.399 10.4193 160.239 10.541 160.055 10.6154C159.872 10.6898 159.672 10.7142 159.477 10.6861C159.285 10.68 159.102 10.6042 158.963 10.4729C158.823 10.3416 158.736 10.1638 158.718 9.97291C158.673 9.04941 158.704 8.12023 158.704 7.17969H159.437V8.3646C159.437 8.72832 159.437 9.09203 159.454 9.45575C159.446 9.51393 159.451 9.57303 159.467 9.62952C159.482 9.68602 159.509 9.73877 159.546 9.78463C159.582 9.83049 159.628 9.86852 159.679 9.89647C159.731 9.92443 159.788 9.94172 159.846 9.94733C159.971 9.97318 160.102 9.95099 160.211 9.88518C160.321 9.81937 160.401 9.71476 160.437 9.59214C160.492 9.40764 160.519 9.21624 160.52 9.02384C160.531 8.41859 160.525 7.81903 160.525 7.18253Z" fill="#9A1E22"/>
<path d="M159.593 28.0359C159.768 28.02 159.944 28.02 160.118 28.0359C160.171 28.0481 160.22 28.0707 160.264 28.1025C160.307 28.1342 160.344 28.1744 160.371 28.2206C160.475 28.3816 160.637 28.4955 160.824 28.5376C161.011 28.5796 161.206 28.5463 161.369 28.445C161.405 28.4108 161.432 28.3676 161.447 28.3196C161.461 28.2716 161.463 28.2207 161.451 28.1719C161.44 28.1232 161.416 28.0783 161.381 28.042C161.347 28.0056 161.303 27.979 161.255 27.9648C160.991 27.8625 160.715 27.7943 160.445 27.7062C159.829 27.4988 159.627 27.2203 159.675 26.6378C159.69 26.3804 159.794 26.1363 159.971 25.9487C160.148 25.761 160.385 25.6418 160.641 25.612C161.511 25.4728 162.113 25.8962 162.15 26.7486C161.849 26.689 161.499 26.9447 161.298 26.4645C161.212 26.2656 160.729 26.24 160.553 26.3793C160.513 26.4057 160.481 26.4432 160.461 26.4871C160.441 26.5311 160.434 26.5798 160.44 26.6277C160.447 26.6756 160.467 26.7206 160.498 26.7576C160.529 26.7946 160.57 26.822 160.616 26.8367C160.861 26.9263 161.11 27.0031 161.363 27.0669C162.022 27.263 162.292 27.6352 162.216 28.2575C162.192 28.5268 162.068 28.7776 161.869 28.9601C161.67 29.1427 161.409 29.2438 161.139 29.2435C160.189 29.3486 159.624 28.9253 159.593 28.0359Z" fill="#9A1E22"/>
<path d="M171.169 10.622H170.414V7.19793H171.13L171.169 7.48208C171.37 7.32498 171.592 7.19768 171.829 7.10416C171.975 7.06164 172.13 7.05492 172.28 7.08458C172.43 7.11424 172.57 7.1794 172.69 7.2746C172.809 7.36981 172.904 7.49227 172.966 7.6317C173.028 7.77114 173.056 7.92349 173.048 8.07596C173.076 8.90285 173.048 9.72973 173.048 10.5879H172.241C172.241 9.84908 172.241 9.12449 172.241 8.3999C172.241 8.14984 172.175 7.914 171.885 7.84864C171.769 7.8106 171.641 7.81887 171.53 7.87173C171.419 7.9246 171.333 8.01804 171.289 8.13279C171.22 8.29937 171.178 8.47584 171.164 8.65563C171.144 8.88012 171.164 9.10744 171.164 9.33476L171.169 10.622Z" fill="#9A1E22"/>
<path d="M173.577 20.7427C173.357 20.7571 173.137 20.7571 172.917 20.7427C172.864 20.7321 172.813 20.7102 172.768 20.6783C172.723 20.6465 172.686 20.6054 172.659 20.558C172.622 20.45 172.552 20.3565 172.458 20.2911C172.365 20.2257 172.253 20.1918 172.139 20.1942C172.018 20.1805 171.896 20.213 171.797 20.2851C171.699 20.3572 171.631 20.4638 171.607 20.5835C171.55 21.0274 171.543 21.4763 171.585 21.9219C171.604 22.0485 171.671 22.1626 171.773 22.2401C171.875 22.3176 172.003 22.3522 172.13 22.3368C172.25 22.342 172.369 22.3051 172.465 22.2325C172.561 22.1599 172.628 22.0561 172.656 21.9389C172.681 21.8909 172.717 21.849 172.76 21.8161C172.803 21.7832 172.853 21.7601 172.906 21.7486C173.106 21.7329 173.308 21.7329 173.508 21.7486C173.521 22.0232 173.444 22.2946 173.291 22.5227C173.138 22.7508 172.915 22.9237 172.656 23.0159C171.713 23.3512 170.86 22.8965 170.667 21.9219C170.523 21.3524 170.578 20.7508 170.823 20.217C171.127 19.5975 171.752 19.3304 172.528 19.4697C173.176 19.5805 173.494 19.9527 173.577 20.7427Z" fill="#9A1E22"/>
<path d="M155.561 24.2129V29.1174H154.558V24.2129H155.561Z" fill="#9A1E22"/>
<path d="M155.541 22.9617H154.55V18.043H155.541V22.9617Z" fill="#9A1E22"/>
<path d="M159.497 19.5671L159.889 19.5132V18.6152H160.69V19.5103L161.167 19.5728V20.1752L160.693 20.2235V21.3886C160.693 21.5363 160.693 21.6727 160.693 21.829C160.656 22.1671 160.727 22.3973 161.162 22.3234V22.9798C160.887 23.0012 160.61 23.0012 160.335 22.9798C160.198 22.9574 160.075 22.882 159.993 22.7698C159.911 22.6576 159.877 22.5176 159.897 22.3803C159.897 21.7921 159.897 21.201 159.897 20.6128V20.2235L159.499 20.1781L159.497 19.5671Z" fill="#9A1E22"/>
<path d="M173.264 25.7515V26.3396L172.795 26.4022C172.795 27.0273 172.776 27.6496 172.812 28.2662C172.812 28.3827 173.048 28.4822 173.176 28.5901L173.233 28.5219C173.233 28.5418 173.27 28.5646 173.264 28.5788C173.193 28.7834 173.497 29.1471 173.034 29.1869C172.361 29.2551 172.017 29.059 171.997 28.5702C171.971 27.9678 171.997 27.3683 171.997 26.7659V26.3993L171.599 26.3453V25.7401L171.983 25.6975V24.791H172.793V25.6861L173.264 25.7515Z" fill="#9A1E22"/>
<path d="M164.182 28.6516V29.1858C163.961 29.1858 163.748 29.2 163.537 29.1858C163.448 29.1915 163.359 29.1772 163.276 29.1438C163.193 29.1103 163.119 29.0587 163.058 28.9927C162.998 28.9267 162.953 28.848 162.928 28.7624C162.902 28.6768 162.896 28.5865 162.909 28.4981C162.909 27.8077 162.909 27.1172 162.909 26.4125L162.506 26.3443V25.7504L162.901 25.6907V24.7871H163.708V25.6936L164.168 25.7362V26.3386L163.716 26.4011C163.716 27.0348 163.696 27.6571 163.733 28.2765C163.739 28.3873 163.978 28.4868 164.182 28.6516Z" fill="#9A1E22"/>
<path d="M174.321 14.0488C174.321 14.6882 174.304 15.2991 174.338 15.91C174.338 16.0265 174.565 16.1317 174.688 16.2453L174.747 16.1771C174.747 16.1942 174.79 16.2141 174.787 16.2283C174.73 16.4385 175.02 16.7966 174.565 16.8392C173.932 16.9131 173.565 16.7255 173.54 16.2879C173.505 15.7196 173.523 15.1513 173.517 14.583C173.517 14.4154 173.517 14.2477 173.517 14.063L173.116 13.9891V13.4038L173.505 13.3441V12.4434H174.312V13.3555L174.779 13.401V14.0119L174.321 14.0488Z" fill="#9A1E22"/>
<path d="M175.529 22.3151V23.0169C175.31 23.0169 175.108 23.0311 174.909 23.0169C174.458 22.9828 174.273 22.7953 174.267 22.3463C174.267 21.778 174.267 21.187 174.267 20.6073V20.2237L173.847 20.1754V19.5787L174.253 19.5133V18.6211H175.057V19.5162L175.517 19.5616V20.1754L175.094 20.2095C175.075 20.2956 175.063 20.383 175.057 20.4709C175.057 20.9369 175.057 21.4029 175.057 21.869C175.034 22.1986 175.12 22.3861 175.529 22.3151Z" fill="#9A1E22"/>
<path d="M166.695 26.3927L166.291 26.3444V25.7477L166.686 25.688V24.793H167.476V25.6852L167.95 25.742V26.3388L167.487 26.4013C167.487 27.0264 167.47 27.6459 167.504 28.2625C167.504 28.379 167.743 28.4813 167.868 28.5892L167.925 28.5267C167.925 28.5438 167.962 28.5665 167.959 28.5807C167.896 28.7882 168.186 29.149 167.723 29.186C167.078 29.2485 166.731 29.0723 166.709 28.6177C166.677 28.0295 166.709 27.4384 166.689 26.8502L166.695 26.3927Z" fill="#9A1E22"/>
<path d="M165.1 19.5383H165.825L165.879 20.0214C166.126 19.6435 166.384 19.382 166.842 19.4531V20.3339L166.654 20.3538C166.151 20.3851 165.93 20.584 165.91 21.0926C165.89 21.7007 165.91 22.3116 165.91 22.951H165.103L165.1 19.5383Z" fill="#9A1E22"/>
<path d="M178.734 13.37H179.461L179.504 13.8218C179.768 13.4951 180.013 13.191 180.484 13.2819V14.1742H180.24C180.148 14.1666 180.056 14.1789 179.969 14.2104C179.882 14.2419 179.803 14.2917 179.738 14.3565C179.672 14.4212 179.622 14.4994 179.589 14.5857C179.556 14.6719 179.543 14.7642 179.549 14.8561C179.524 15.379 179.535 15.9018 179.53 16.4247C179.53 16.5355 179.53 16.6435 179.53 16.7713H178.748L178.734 13.37Z" fill="#9A1E22"/>
<path d="M177.057 22.9665H176.151V19.5566H177.057V22.9665Z" fill="#9A1E22"/>
<path d="M165.699 29.1286H164.79V25.7188H165.699V29.1286Z" fill="#9A1E22"/>
<path d="M175.432 8.29492C175.432 8.53645 175.432 8.7382 175.432 8.94279C175.432 9.00814 175.432 9.0735 175.412 9.16159H173.596V8.29492H175.432Z" fill="#9A1E22"/>
<path d="M137.839 0.000470055C137.932 2.35865e-05 138.025 0.0185593 138.112 0.0549629C138.198 0.0913665 138.277 0.144886 138.342 0.212305C138.407 0.279724 138.458 0.35965 138.492 0.447277C138.526 0.534905 138.541 0.628426 138.538 0.722218C138.544 0.820883 138.53 0.919848 138.497 1.01283C138.463 1.10581 138.41 1.19077 138.342 1.26232C138.274 1.33387 138.191 1.39044 138.1 1.42844C138.009 1.46645 137.911 1.48505 137.812 1.48307C137.713 1.4811 137.616 1.45858 137.526 1.41696C137.436 1.37533 137.356 1.31551 137.291 1.24129C137.225 1.16707 137.176 1.08007 137.146 0.98582C137.116 0.891568 137.106 0.792124 137.117 0.693802C137.117 0.600427 137.136 0.508069 137.173 0.422226C137.21 0.336383 137.263 0.258809 137.331 0.194121C137.398 0.129433 137.478 0.0789524 137.565 0.0456841C137.652 0.0124157 137.745 -0.00296064 137.839 0.000470055Z" fill="#9A1E22"/>
<path d="M165.239 25.29C164.768 25.29 164.768 25.29 164.768 24.8496C164.768 24.4091 164.768 24.4461 165.273 24.4461C165.728 24.4461 165.728 24.4461 165.728 24.8695C165.728 25.2928 165.728 25.29 165.239 25.29Z" fill="#9A1E22"/>
<path d="M177.058 18.3047V19.0861H176.154V18.3047H177.058Z" fill="#9A1E22"/>
<defs>
<linearGradient id="paint0_linear" x1="91.0005" y1="13" x2="70.0005" y2="13" gradientUnits="userSpaceOnUse">
<stop stop-color="#FF7C1A"/>
<stop offset="1" stop-color="#D12C9F"/>
</linearGradient>
</defs>
</svg>
