<svg width="60" height="98" viewBox="0 0 60 98" fill="none" xmlns="http://www.w3.org/2000/svg">
<path d="M30.2939 80.0049C30.2939 81.1943 30.0547 82.2448 29.5762 83.1562C29.0977 84.0677 28.4141 84.7695 27.5254 85.2617C26.6367 85.7539 25.5954 86 24.4014 86H21.9951L24.1074 76.0059H26.4453C27.7031 76.0059 28.6579 76.3477 29.3096 77.0312C29.9658 77.7103 30.2939 78.7015 30.2939 80.0049ZM24.4766 84.9951C25.3971 84.9951 26.2061 84.7878 26.9033 84.373C27.6006 83.9538 28.1338 83.3636 28.5029 82.6025C28.8766 81.8415 29.0635 80.971 29.0635 79.9912C29.0635 79.0114 28.8288 78.2708 28.3594 77.7695C27.89 77.2637 27.2018 77.0107 26.2949 77.0107H25.0781L23.3691 84.9951H24.4766ZM35.127 78.4121C35.9928 78.4121 36.6764 78.6696 37.1777 79.1846C37.679 79.695 37.9297 80.3991 37.9297 81.2969C37.9297 82.1536 37.7656 82.9626 37.4375 83.7236C37.1094 84.4847 36.665 85.0726 36.1045 85.4873C35.5439 85.902 34.9105 86.1094 34.2041 86.1094C33.3291 86.1094 32.6432 85.8519 32.1465 85.3369C31.6497 84.8219 31.4014 84.1178 31.4014 83.2246C31.4014 82.3587 31.5677 81.5452 31.9004 80.7842C32.2331 80.0186 32.682 79.4329 33.2471 79.0273C33.8122 78.6172 34.4388 78.4121 35.127 78.4121ZM36.7402 81.1396C36.7402 80.6156 36.5967 80.1917 36.3096 79.8682C36.027 79.54 35.6419 79.376 35.1543 79.376C34.6576 79.376 34.2109 79.5446 33.8145 79.8818C33.4225 80.2191 33.1172 80.6885 32.8984 81.29C32.6842 81.887 32.5771 82.5524 32.5771 83.2861C32.5771 83.8831 32.7207 84.3457 33.0078 84.6738C33.2995 84.9974 33.7165 85.1592 34.2588 85.1592C34.7327 85.1592 35.1589 84.9928 35.5371 84.6602C35.9154 84.3275 36.2093 83.8558 36.4189 83.2451C36.6331 82.6299 36.7402 81.9281 36.7402 81.1396Z" fill="#4F4F4F"/>
<path d="M30 0C13.458 0 0 13.458 0 30C0 46.542 13.458 60 30 60C46.542 60 60 46.542 60 30C60 13.458 46.542 0 30 0ZM45.563 30.826L23.563 45.826C23.394 45.941 23.197 46 23 46C22.84 46 22.679 45.962 22.533 45.884C22.205 45.711 22 45.371 22 45V15C22 14.629 22.205 14.289 22.533 14.116C22.861 13.942 23.257 13.966 23.564 14.174L45.564 29.174C45.836 29.36 46 29.669 46 30C46 30.331 45.836 30.64 45.563 30.826Z" fill="#A9A9A9"/>
</svg>
