<svg width="60" height="98" viewBox="0 0 60 98" fill="none" xmlns="http://www.w3.org/2000/svg">
<path d="M22.7949 80.0049C22.7949 81.1943 22.5557 82.2448 22.0771 83.1562C21.5986 84.0677 20.915 84.7695 20.0264 85.2617C19.1377 85.7539 18.0964 86 16.9023 86H14.4961L16.6084 76.0059H18.9463C20.2041 76.0059 21.1589 76.3477 21.8105 77.0312C22.4668 77.7103 22.7949 78.7015 22.7949 80.0049ZM16.9775 84.9951C17.8981 84.9951 18.707 84.7878 19.4043 84.373C20.1016 83.9538 20.6348 83.3636 21.0039 82.6025C21.3776 81.8415 21.5645 80.971 21.5645 79.9912C21.5645 79.0114 21.3298 78.2708 20.8604 77.7695C20.391 77.2637 19.7028 77.0107 18.7959 77.0107H17.5791L15.8701 84.9951H16.9775ZM27.6279 78.4121C28.4938 78.4121 29.1774 78.6696 29.6787 79.1846C30.18 79.695 30.4307 80.3991 30.4307 81.2969C30.4307 82.1536 30.2666 82.9626 29.9385 83.7236C29.6104 84.4847 29.166 85.0726 28.6055 85.4873C28.0449 85.902 27.4115 86.1094 26.7051 86.1094C25.8301 86.1094 25.1442 85.8519 24.6475 85.3369C24.1507 84.8219 23.9023 84.1178 23.9023 83.2246C23.9023 82.3587 24.0687 81.5452 24.4014 80.7842C24.734 80.0186 25.1829 79.4329 25.748 79.0273C26.3132 78.6172 26.9398 78.4121 27.6279 78.4121ZM29.2412 81.1396C29.2412 80.6156 29.0977 80.1917 28.8105 79.8682C28.528 79.54 28.1429 79.376 27.6553 79.376C27.1585 79.376 26.7119 79.5446 26.3154 79.8818C25.9235 80.2191 25.6182 80.6885 25.3994 81.29C25.1852 81.887 25.0781 82.5524 25.0781 83.2861C25.0781 83.8831 25.2217 84.3457 25.5088 84.6738C25.8005 84.9974 26.2174 85.1592 26.7598 85.1592C27.2337 85.1592 27.6598 84.9928 28.0381 84.6602C28.4163 84.3275 28.7103 83.8558 28.9199 83.2451C29.1341 82.6299 29.2412 81.9281 29.2412 81.1396ZM36.0771 86L37.0889 81.2695C37.18 80.7956 37.2256 80.4674 37.2256 80.2852C37.2256 79.998 37.1436 79.7679 36.9795 79.5947C36.82 79.4215 36.5625 79.335 36.207 79.335C35.8014 79.335 35.4049 79.4717 35.0176 79.7451C34.6348 80.0186 34.2952 80.4082 33.999 80.9141C33.7074 81.4199 33.4863 82.0329 33.3359 82.7529L32.6455 86H31.4971L33.0967 78.5078H34.0469L33.8965 79.8955H33.9648C34.4023 79.3395 34.8239 78.9476 35.2295 78.7197C35.6396 78.4873 36.0635 78.3711 36.501 78.3711C37.0798 78.3711 37.5355 78.5306 37.8682 78.8496C38.2054 79.1641 38.374 79.6061 38.374 80.1758C38.374 80.5358 38.3216 80.946 38.2168 81.4062L37.2393 86H36.0771ZM42.7012 76.0059L42.7559 76.1562C42.5736 76.571 42.3206 77.07 41.9971 77.6533C41.6735 78.2321 41.3112 78.8245 40.9102 79.4307H40.0283C40.639 78.0726 41.1016 76.931 41.416 76.0059H42.7012ZM44.2529 85.2002C44.5036 85.2002 44.8317 85.141 45.2373 85.0225V85.9043C45.0824 85.9681 44.891 86.0228 44.6631 86.0684C44.4352 86.1139 44.2529 86.1367 44.1162 86.1367C43.5465 86.1367 43.109 86.0023 42.8037 85.7334C42.5029 85.46 42.3525 85.0544 42.3525 84.5166C42.3525 84.2158 42.3936 83.874 42.4756 83.4912L43.3438 79.376H42.168L42.2637 78.877L43.5283 78.3438L44.3828 76.7852H45.0527L44.6768 78.5078H46.5498L46.3721 79.376H44.5059L43.624 83.5049C43.542 83.9014 43.501 84.2021 43.501 84.4072C43.501 84.6624 43.5671 84.8584 43.6992 84.9951C43.8314 85.1318 44.016 85.2002 44.2529 85.2002Z" fill="#4F4F4F"/>
<path d="M30 0C13.458 0 0 13.458 0 30C0 46.542 13.458 60 30 60C46.542 60 60 46.542 60 30C60 13.458 46.542 0 30 0ZM45.563 30.826L23.563 45.826C23.394 45.941 23.197 46 23 46C22.84 46 22.679 45.962 22.533 45.884C22.205 45.711 22 45.371 22 45V15C22 14.629 22.205 14.289 22.533 14.116C22.861 13.942 23.257 13.966 23.564 14.174L45.564 29.174C45.836 29.36 46 29.669 46 30C46 30.331 45.836 30.64 45.563 30.826Z" fill="#A9A9A9"/>
</svg>
